<?xml version="1.0" encoding="utf-8"?>
<!-- Generator: Adobe Illustrator 15.1.0, SVG Export Plug-In . SVG Version: 6.00 Build 0)  -->
<!DOCTYPE svg PUBLIC "-//W3C//DTD SVG 1.1//EN" "http://www.w3.org/Graphics/SVG/1.1/DTD/svg11.dtd">
<svg version="1.1" id="Layer_1" xmlns="http://www.w3.org/2000/svg" xmlns:xlink="http://www.w3.org/1999/xlink" x="0px" y="0px"
	 width="62.126px" height="36.636px" viewBox="0 0 62.126 36.636" enable-background="new 0 0 62.126 36.636" xml:space="preserve">
<rect y="14.701" fill="#DB213C" width="62.126" height="9.369"/>
<rect y="27.269" fill="#DB213C" width="62.126" height="9.367"/>
<polygon fill="#DB213C" points="51.641,0 53.069,4.395 57.69,4.395 53.952,7.111 55.379,11.506 51.641,8.79 47.903,11.506 
	49.331,7.111 45.592,4.395 50.213,4.395 "/>
<polygon fill="#DB213C" points="30.711,0 32.139,4.395 36.76,4.395 33.022,7.111 34.45,11.506 30.711,8.79 26.973,11.506 
	28.4,7.111 24.662,4.395 29.283,4.395 "/>
<polygon fill="#DB213C" points="9.781,0 11.209,4.395 15.83,4.395 12.092,7.111 13.52,11.506 9.781,8.79 6.042,11.506 7.47,7.111 
	3.732,4.395 8.353,4.395 "/>
</svg>
