<?xml version="1.0" encoding="utf-8"?>
<!-- Generator: Adobe Illustrator 15.0.0, SVG Export Plug-In . SVG Version: 6.00 Build 0)  -->
<!DOCTYPE svg PUBLIC "-//W3C//DTD SVG 1.1//EN" "http://www.w3.org/Graphics/SVG/1.1/DTD/svg11.dtd">
<svg version="1.1" id="Layer_1" xmlns="http://www.w3.org/2000/svg" xmlns:xlink="http://www.w3.org/1999/xlink" x="0px" y="0px"
	 width="44px" height="38px" viewBox="0 0 44 38" enable-background="new 0 0 44 38" xml:space="preserve">
<g>
	<g>
		<polygon fill="#F7E432" points="43.119,31.242 37.393,31.242 25.823,11.201 18.001,24.745 12.275,24.745 22.732,6.631 
			28.908,6.631 		"/>
		<polygon fill="#F7E432" points="25.229,0.249 28.05,5.134 22.322,5.134 19.501,0.249 		"/>
		<polygon fill="#F7E432" points="18.41,1.154 21.271,6.112 9.699,26.154 25.335,26.154 28.197,31.113 7.284,31.113 4.195,25.769 		
			"/>
		<polygon fill="#F7E432" points="0.51,32.145 3.333,27.26 6.195,32.221 3.375,37.104 		"/>
		<polygon fill="#F7E432" points="4.837,37.747 7.701,32.788 30.848,32.788 23.026,19.244 25.893,14.287 36.348,32.4 33.262,37.747 
					"/>
		<polygon fill="#F7E432" points="40.627,37.751 34.983,37.751 37.85,32.791 43.49,32.791 		"/>
	</g>
</g>
</svg>
