<?xml version="1.0" encoding="UTF-8"?>
<!DOCTYPE svg PUBLIC "-//W3C//DTD SVG 1.1//EN" "http://www.w3.org/Graphics/SVG/1.1/DTD/svg11.dtd">
<svg version="1.1" xmlns="http://www.w3.org/2000/svg" xmlns:xlink="http://www.w3.org/1999/xlink">

<defs>
  <clipPath id="page-mask-512">
	<polygon points="0,0 512,0 512,336,
		508,332 504,336 500,332 496,336 492,332 488,336 484,332 480,336 476,332 472,336 468,332 464,336 460,332 456,336 452,332 448,336 444,332 440,336 436,332 432,336 428,332 424,336 420,332 416,336 412,332 408,336 404,332 400,336 396,332 392,336 388,332 384,336 380,332 376,336 372,332 368,336 364,332 360,336 356,332 352,336 348,332 344,336 340,332 336,336 332,332 328,336 324,332 320,336 316,332 312,336 308,332 304,336 300,332 296,336 292,332 288,336 284,332 280,336 276,332 272,336 268,332 264,336 260,332 256,336 252,332 248,336 244,332 240,336 236,332 232,336 228,332 224,336 220,332 216,336 212,332 208,336 204,332 200,336 196,332 192,336 188,332 184,336 180,332 176,336 172,332 168,336 164,332 160,336 156,332 152,336 148,332 144,336 140,332 136,336 132,332 128,336 124,332 120,336 116,332 112,336 108,332 104,336 100,332 96,336 92,332 88,336 84,332 80,336 76,332 72,336 68,332 64,336 60,332 56,336 52,332 48,336 44,332 40,336 36,332 32,336 28,332 24,336 20,332 16,336 12,332 8,336 4,332 0,336" />
  </clipPath>

  <clipPath id="page-mask-128">
	<polygon points="0,0 128,0 128,84,
		124,80 120,84 116,80 112,84 108,80 104,84 100,80 96,84 92,80 88,84 84,80 80,84 76,80 72,84 68,80 64,84 60,80 56,84 52,80 48,84 44,80 40,84 36,80 32,84 28,80 24,84 20,80 16,84 12,80 8,84 4,80 0,84" />
  </clipPath>

  <clipPath id="page-mask-160">
	<polygon points="0,0 160,0 160,105,
		156,101 152,105 148,101 144,105 140,101 136,105 132,101 128,105 124,101 120,105 116,101 112,105 108,101 104,105 100,101 96,105 92,101 88,105 84,101 80,105 76,101 72,105 68,101 64,105 60,101 56,105 52,101 48,105 44,101 40,105 36,101 32,105 28,101 24,105 20,101 16,105 12,101 8,105 4,101 0,105 " />
  </clipPath>

</defs>

</svg>
