<?xml version="1.0" standalone="no"?>
<!DOCTYPE svg PUBLIC "-//W3C//DTD SVG 1.1//EN" "http://www.w3.org/Graphics/SVG/1.1/DTD/svg11.dtd">
<svg xmlns="http://www.w3.org/2000/svg"><metadata>This SVG WebFont was generated by YouWorkForThem.
Copyright (c) 2008 by Ramiz Guseynov. All rights reserved.</metadata><defs><font horiz-adv-x="1075" id="ywftsvg"><font-face ascent="1536" bbox="-195 -428 2509 1864" cap-height="1434" descent="-512" font-family="" font-stretch="normal" font-weight="400" panose-1="2 0 5 6 0 0 0 2 0 4" underline-position="0" underline-thickness="0" unicode-range="U+0020-FB02" units-per-em="2048" x-height="1024"/><missing-glyph horiz-adv-x="450"/><glyph glyph-name=".notdef" horiz-adv-x="450"/><glyph glyph-name="glyph1" horiz-adv-x="0"/><glyph glyph-name="glyph2" horiz-adv-x="681"/><glyph glyph-name="space" horiz-adv-x="450" unicode=" "/><glyph d="M346 1434v-1096h-166v1096h166zM164 0v201h201v-201h-201z" glyph-name="exclam" horiz-adv-x="528" unicode="!"/><glyph d="M442 950v484h146v-484h-146zM174 950v484h145v-484h-145z" glyph-name="quotedbl" horiz-adv-x="761" unicode="&quot;"/><glyph d="M494 547h239l45 323h-237zM1073 547v-154h-203l-55 -393h-158l54 393h-238l-55 -393h-156l55 393h-184v154h207l45 323h-186v154h209l57 410h156l-60 -410h240l59 410h160l-59 -410h178v-154h-199l-47 -323h180z" glyph-name="numbersign" horiz-adv-x="1271" unicode="#"/><glyph d="M442 -98v100q-137 18 -223 122t-86 249v61h170v-61q0 -91 59 -153t150 -62h25q88 0 147 58t59 150t-61 162t-148 113q-88 43 -174 89t-147 129t-61 210t81 229q82 102 209 132v102h162v-102q133 -26 215 -130t82 -260h-172q0 104 -55 169q-56 65 -146 65t-146 -57 t-56 -139t60 -140q60 -57 148 -99q88 -43 174 -93q87 -50 147 -144t60 -233t-87 -243t-224 -124v-100h-162z" glyph-name="dollar" horiz-adv-x="1048" unicode="$"/><glyph d="M485 0l729 1434h172l-724 -1434h-177zM1577 279v282q0 66 -43 112t-103 46q-61 0 -103 -46t-42 -112v-280q0 -66 42 -112t104 -46t103 45q42 45 42 111zM1739 555v-270q0 -127 -88 -217t-211 -91h-17q-121 -1 -209 91t-88 217v270q0 129 87 218t210 89h17q123 0 211 -89 t88 -218zM586 866v285q0 63 -44 109t-104 47q-60 0 -103 -46q-42 -46 -42 -110v-283q0 -66 42 -110t103 -45q61 0 105 45q43 45 43 108zM748 1145v-271q0 -129 -88 -218t-214 -89h-14q-123 0 -211 90t-88 217v271q0 129 88 218t211 89h14q122 0 212 -89t90 -218z" glyph-name="percent" horiz-adv-x="1871" unicode="%"/><glyph d="M285 356q-1 -90 63 -152t145 -63q81 0 134 35l-267 615q-76 -51 -75 -142v-293zM815 1434v-162h-471v-15l332 -761l43 -123v299h172v-316q0 -125 -64 -209l66 -147h-186l-13 29q-92 -49 -186 -49h-12q-160 0 -272 110t-111 268v293q0 98 50 175t132 116l-121 272v220h641 z" glyph-name="ampersand" horiz-adv-x="1005" unicode="&amp;"/><glyph d="M174 934v483h148v-483h-148z" glyph-name="quotesingle" horiz-adv-x="495" unicode="'"/><glyph d="M578 -227v-162q-168 1 -286 111t-118 268v1089q0 156 118 267t286 110v-166q-100 0 -167 -61t-67 -152v-1089q0 -92 67 -154t167 -61z" glyph-name="parenleft" horiz-adv-x="669" unicode="("/><glyph d="M92 -389v162q100 0 166 61t66 154v1089q0 93 -66 153t-166 60v166q168 0 287 -110t119 -267v-1089q0 -156 -119 -268t-287 -111z" glyph-name="parenright" horiz-adv-x="671" unicode=")"/><glyph d="M283 1432h139v-148l149 47l41 -125l-151 -55l94 -123l-113 -80l-90 119l-80 -119l-114 76l84 125l-150 43l41 131l150 -43v152z" glyph-name="asterisk" horiz-adv-x="704" unicode="*"/><glyph d="M514 1057h170v-371h381v-166h-381v-375h-170v375h-381v166h381v371z" glyph-name="plus" horiz-adv-x="1198" unicode="+"/><glyph d="M137 0v201h201v-187l-86 -254h-119l70 240h-66z" glyph-name="comma" horiz-adv-x="471" unicode=","/><glyph d="M633 680v-160h-500v160h500z" glyph-name="hyphen" horiz-adv-x="765" unicode="-"/><glyph d="M133 0v201h201v-201h-201z" glyph-name="period" horiz-adv-x="466" unicode="."/><glyph d="M10 0l549 1434h172l-551 -1434h-170z" glyph-name="slash" horiz-adv-x="741" unicode="/"/><glyph d="M709 354v721q1 89 -59 153t-145 64t-145 -63t-59 -154v-719q0 -90 59 -152q58 -62 144 -62t146 60q60 62 59 152zM879 1077v-721q0 -156 -108 -266t-259 -110h-14q-154 0 -259 110t-106 268v719q-1 158 105 268t260 109h14q152 0 260 -110t107 -267z" glyph-name="zero" horiz-adv-x="1011" unicode="0"/><glyph d="M31 1272v162h358v-1434h-172v1272h-186z" glyph-name="one" horiz-adv-x="563" unicode="1"/><glyph d="M281 1044h-172q0 176 113 293q114 117 275 117t271 -108t111 -272q0 -165 -122 -302q-66 -74 -191 -180q-126 -106 -180 -162q-122 -125 -122 -268h615v-162h-787v150q0 134 64 248t153 194q90 80 180 154q216 177 218 346q-1 84 -63 142t-151 58t-151 -71 q-61 -73 -61 -177z" glyph-name="two" horiz-adv-x="970" unicode="2"/><glyph d="M150 1272v162h667v-152l-244 -317q111 -13 195 -105t84 -215v-287q0 -158 -112 -268t-271 -110h-14q-160 0 -272 110t-111 266v41h172v-43q0 -90 63 -151t155 -61t154 62q63 62 64 152v287q0 66 -47 114t-115 48h-153v153l233 314h-448z" glyph-name="three" horiz-adv-x="985" unicode="3"/><glyph d="M72 303v160l458 971h185l-447 -965h334v369h172v-369h119v-166h-119v-303h-172v303h-530z" glyph-name="four" horiz-adv-x="985" unicode="4"/><glyph d="M113 356v41h172v-43q0 -90 63 -151q62 -61 154 -61t154 62t63 152v234q-1 90 -63 152t-152 63h-15q-61 0 -108 -34t-66 -75l-157 47l59 691h625v-166h-461l-35 -338q68 37 150 37h12q160 0 272 -110t111 -265v-234q0 -158 -112 -268t-271 -110h-12q-160 0 -272 109 q-111 109 -111 267z" glyph-name="five" horiz-adv-x="1024" unicode="5"/><glyph d="M510 805q-78 0 -142 -65t-65 -150v-236q-1 -90 63 -151t155 -61t155 62t63 152v234q0 90 -63 152t-154 63h-12zM303 1073v-194q88 88 211 88h14q160 0 272 -110t111 -265v-234q1 -158 -111 -268t-272 -110h-14q-160 0 -270 110t-111 266v719q0 159 109 269t266 110h10 q160 0 270 -111t109 -270h-174q0 93 -59 155q-60 62 -150 62t-150 -64t-61 -153z" glyph-name="six" horiz-adv-x="1044" unicode="6"/><glyph d="M428 0h-176q0 211 79 483q79 271 159 493t85 296h-544v162h717v-150q0 -120 -160 -559q-60 -163 -110 -367t-50 -358z" glyph-name="seven" horiz-adv-x="819" unicode="7"/><glyph d="M721 1018v69q0 85 -58 145q-59 60 -143 60t-141 -59t-57 -146v-67q0 -80 54 -139t138 -60h18q78 1 134 57t55 140zM739 354v88q0 90 -63 154q-64 64 -154 63q-90 0 -153 -63t-64 -154v-86q0 -90 65 -152q64 -62 154 -62t152 60q62 62 63 152zM893 1096v-76 q0 -170 -129 -275q147 -115 147 -301v-88q1 -158 -109 -268t-270 -108h-18q-160 0 -270 110t-111 268v86q0 184 150 301q-133 100 -133 277v74q0 150 105 254t257 104h18q152 0 258 -104t105 -254z" glyph-name="eight" horiz-adv-x="1044" unicode="8"/><glyph d="M535 629q79 1 143 65t63 150v235q0 89 -63 151q-62 62 -154 62t-155 -62t-64 -153v-233q-1 -90 63 -152t154 -63h13zM741 360v195q-88 -88 -211 -88h-14q-160 0 -272 110t-111 265v233q0 159 112 269t271 110h14q160 0 271 -110t110 -267v-719q-1 -158 -109 -268 t-265 -110h-11q-160 0 -270 110t-109 270h175q0 -92 59 -154t149 -62t150 62q60 64 61 154z" glyph-name="nine" horiz-adv-x="1044" unicode="9"/><glyph d="M133 823v201h201v-201h-201zM133 0v201h201v-201h-201z" glyph-name="colon" horiz-adv-x="466" unicode=":"/><glyph d="M137 0v201h201v-187l-86 -254h-119l70 240h-66zM137 823v201h201v-201h-201z" glyph-name="semicolon" horiz-adv-x="471" unicode=";"/><glyph d="M133 522v150l848 383v-176l-643 -283l643 -281v-178z" glyph-name="less" horiz-adv-x="1114" unicode="&lt;"/><glyph d="M1040 854v-160h-907v160h907zM1040 502v-160h-907v160h907z" glyph-name="equal" horiz-adv-x="1173" unicode="="/><glyph d="M981 672v-150l-848 -385v178l643 281l-643 283v176z" glyph-name="greater" horiz-adv-x="1114" unicode=">"/><glyph d="M336 0v203h207v-203h-207zM252 1065h-170q0 175 111 281t275 106t276 -103q110 -103 110 -282t-117 -294q-49 -48 -97 -99q-116 -123 -116 -336h-170q0 135 34 234q34 100 81 156t94 103q115 115 115 256q0 87 -62 143t-152 56q-91 0 -152 -60q-60 -61 -60 -161z" glyph-name="question" horiz-adv-x="966" unicode="?"/><glyph d="M463 700q0 140 101 238q100 98 240 98t226 -71q-2 137 -106 234t-244 97h-33q-141 0 -247 -102t-105 -240v-811q0 -137 98 -238t234 -102h39v-157h-33q-207 0 -353 147t-147 350v811q0 204 153 352t361 148h33q206 0 358 -143t152 -346v-965h-160v49q-86 -66 -207 -65 q-160 0 -260 96t-100 237v383zM623 690v-360q0 -78 60 -137t142 -59q81 0 143 58q62 60 62 138v360q0 80 -59 137t-143 57t-145 -58q-60 -58 -60 -136z" glyph-name="at" horiz-adv-x="1323" unicode="@"/><glyph d="M754 616l-197 656h-39l-194 -656h430zM932 0h-174v457h-443v-457h-172v612l248 822h293l248 -826v-608z" glyph-name="A" unicode="A"/><glyph d="M336 676v-514h196q80 0 134 54q53 54 53 128v148q0 61 -48 122t-139 62h-196zM543 1268h-207v-437h207q70 -1 119 47t49 115v115q0 66 -49 113t-119 47zM539 1434q145 0 241 -94t97 -226v-113q0 -137 -117 -243q131 -106 131 -266v-148q-1 -148 -107 -246t-252 -98h-368 v1434h375z" glyph-name="B" horiz-adv-x="1024" unicode="B"/><glyph d="M930 397v-41q0 -158 -113 -268t-274 -108h-11q-162 0 -276 110t-113 268v719q0 158 114 268t275 109h11q163 0 275 -111t112 -268h-172q0 89 -65 151t-157 62t-154 -61q-64 -61 -65 -152v-719q-1 -90 63 -152t156 -62t158 62q64 62 64 150v43h172z" glyph-name="C" horiz-adv-x="1052" unicode="C"/><glyph d="M745 375v680q0 90 -63 151t-156 62h-200v-1106h200q92 0 156 61q63 62 63 152zM920 1057v-680q0 -157 -113 -267t-275 -110h-378v1434h378q162 0 275 -110t113 -267z" glyph-name="D" horiz-adv-x="1062" unicode="D"/><glyph d="M164 1434h700v-162h-528v-436h479v-160h-479v-514h545v-162h-717v1434z" glyph-name="E" horiz-adv-x="983" unicode="E"/><glyph d="M154 1434h700v-162h-528v-436h479v-160h-479v-676h-172v1434z" glyph-name="F" horiz-adv-x="925" unicode="F"/><glyph d="M956 737v-381q0 -156 -114 -266t-275 -110h-35q-162 0 -276 110t-113 268v719q0 158 114 268t275 109h35q162 0 276 -111t113 -268h-176q0 89 -62 151t-157 62h-22q-93 0 -157 -61t-65 -152v-719q-1 -90 63 -152t159 -63h22q95 -1 157 61t62 152v221h-209v162h385z" glyph-name="G" horiz-adv-x="1089" unicode="G"/><glyph d="M778 1434h174v-1434h-174v676h-442v-676h-172v1434h172v-598h442v598z" glyph-name="H" horiz-adv-x="1116" unicode="H"/><glyph d="M336 1434v-1434h-172v1434h172z" glyph-name="I" horiz-adv-x="499" unicode="I"/><glyph d="M596 1434h178v-1123q0 -139 -99 -235t-241 -96t-243 97q-99 97 -99 234v226h172v-236q0 -66 49 -113t117 -47t117 47t49 113v1133z" glyph-name="J" horiz-adv-x="927" unicode="J"/><glyph d="M338 0h-174v1434h174v-674l455 674h200l-456 -680l479 -754h-199l-479 760v-760z" glyph-name="K" horiz-adv-x="1056" unicode="K"/><glyph d="M164 1434h174v-1272h465v-162h-639v1434z" glyph-name="L" horiz-adv-x="854" unicode="L"/><glyph d="M1143 1434v-1434h-174v1024l6 92l-246 -502h-151l-246 500l6 -90v-1024h-174v1434h186l299 -631h8l299 631h187z" glyph-name="M" horiz-adv-x="1306" unicode="M"/><glyph d="M780 1434h172v-1434h-188l-442 1096l14 -115v-981h-172v1434h188l443 -1094l-15 111v983z" glyph-name="N" horiz-adv-x="1116" unicode="N"/><glyph d="M780 354v721q0 89 -62 151t-157 62h-22q-93 0 -157 -61t-65 -152v-719q-1 -90 63 -152t159 -63h22q95 -1 157 61t62 152zM956 1077v-721q0 -156 -114 -266t-275 -110h-35q-162 0 -276 110t-113 268v719q0 158 114 268t275 109h35q161 0 275 -110t114 -267z" glyph-name="O" horiz-adv-x="1099" unicode="O"/><glyph d="M709 813v299q0 66 -47 111t-115 45h-211v-609h211q68 -1 115 45t47 109zM164 0v1434h391q137 0 232 -94t96 -226v-295q1 -135 -95 -228t-233 -93h-219v-498h-172z" glyph-name="P" horiz-adv-x="985" unicode="P"/><glyph d="M541 139q78 0 133 31q-74 100 -148 100t-125 -84q62 -47 140 -47zM780 354v721q0 89 -62 151t-157 62h-22q-93 0 -157 -61t-65 -152v-719q0 -25 2 -34q92 102 218 102t235 -123q8 18 8 53zM956 1077v-721q0 -109 -57 -194l94 -103l-119 -108l-88 94q-98 -66 -219 -65h-35 q-162 0 -276 110t-113 268v719q0 158 114 268t275 109h35q161 0 275 -110t114 -267z" glyph-name="Q" horiz-adv-x="1095" unicode="Q"/><glyph d="M709 836v276q0 64 -47 110t-113 46h-213v-586h213q66 0 113 46t47 108zM336 522v-522h-172v1434h391q137 0 232 -94t96 -226v-272q0 -98 -49 -175t-138 -116l234 -551h-187l-223 522h-184z" glyph-name="R" horiz-adv-x="1032" unicode="R"/><glyph d="M909 1073h-170q0 86 -62 151q-61 64 -153 64t-154 -57t-62 -140t62 -143q64 -60 155 -107t183 -101t154 -151q64 -97 64 -243t-114 -256t-273 -110h-37q-162 0 -276 110t-113 266v56h174v-56q0 -90 63 -152t158 -63h22q92 1 156 59t64 151t-64 166t-154 119 q-92 46 -182 96t-153 137t-64 210q0 160 114 268q113 107 275 107t274 -110t113 -271z" glyph-name="S" horiz-adv-x="1038" unicode="S"/><glyph d="M51 1270v164h787v-164h-306v-1270h-178v1270h-303z" glyph-name="T" horiz-adv-x="888" unicode="T"/><glyph d="M791 1434h176v-1078q0 -156 -114 -266t-275 -110h-35q-162 0 -276 110t-113 268v1076h174v-1078q0 -90 63 -152t158 -63h22q95 -1 157 61t63 152v1080z" glyph-name="U" horiz-adv-x="1120" unicode="U"/><glyph d="M315 1434v-592l203 -680h39l201 680v592h174v-609l-248 -825h-293l-248 821v613h172z" glyph-name="V" unicode="V"/><glyph d="M1090 1434h176v-611l-119 -823h-279l-153 604h-13l-151 -604h-281l-116 823v611h174v-596l84 -672h18l176 653h205l174 -653h19l86 672v596z" glyph-name="W" horiz-adv-x="1419" unicode="W"/><glyph d="M289 1434l237 -508l240 508h188l-333 -689l362 -745h-188l-269 563l-266 -563h-188l360 745l-334 689h191z" glyph-name="X" horiz-adv-x="1054" unicode="X"/><glyph d="M602 0h-178v678l-373 756h191l272 -539l270 539h193l-375 -756v-678z" glyph-name="Y" horiz-adv-x="1028" unicode="Y"/><glyph d="M893 162v-162h-791v172l588 1100h-557v162h762v-172l-590 -1100h588z" glyph-name="Z" horiz-adv-x="997" unicode="Z"/><glyph d="M578 -205v-162h-404v1801h404v-166h-234v-1473h234z" glyph-name="bracketleft" horiz-adv-x="669" unicode="["/><glyph d="M180 1434l559 -1434h-172l-557 1434h170z" glyph-name="backslash" horiz-adv-x="749" unicode="\"/><glyph d="M92 -367v162h234v1473h-234v166h404v-1801h-404z" glyph-name="bracketright" horiz-adv-x="669" unicode="]"/><glyph d="M422 1432h139l289 -756h-152l-211 541l-202 -541h-152z" glyph-name="asciicircum" horiz-adv-x="983" unicode="^"/><glyph d="M10 -154h985v-137h-985v137z" glyph-name="underscore" horiz-adv-x="1005" unicode="_"/><glyph d="M504 1151h-182l-312 303h234z" glyph-name="grave" horiz-adv-x="505" unicode="`"/><glyph d="M442 127q84 0 148 51q63 51 63 119v203l-223 -15q-76 -4 -127 -57t-51 -126t53 -124t137 -51zM653 0v63q-84 -83 -224 -83t-239 91q-98 91 -98 226t96 231t234 105l231 14v53q0 80 -47 138t-129 57q-150 0 -172 -150h-162q13 135 103 217t240 82t239 -94q88 -94 88 -237 v-713h-160z" glyph-name="a" horiz-adv-x="946" unicode="a"/><glyph d="M711 324v376q1 78 -59 136t-144 59q-84 0 -144 -58t-61 -137v-376q-1 -78 61 -136t145 -59q83 1 143 59t59 136zM143 0v1434h160v-473q25 31 86 57t121 26q158 0 259 -96t101 -235v-402q0 -141 -101 -236t-259 -95q-58 0 -120 26t-87 57v-63h-160z" glyph-name="b" horiz-adv-x="983" unicode="b"/><glyph d="M283 700v-376q0 -78 60 -136t144 -59q84 0 143 60q58 60 58 145h160q0 -156 -99 -255t-263 -99t-263 95q-100 95 -100 238v400q0 139 101 235t260 96t257 -99t99 -249h-160q0 86 -54 142t-138 57q-84 -1 -145 -59q-60 -58 -60 -136z" glyph-name="c" horiz-adv-x="950" unicode="c"/><glyph d="M272 700v-376q0 -78 60 -136t142 -59q83 0 144 58t62 137v376q0 78 -60 136t-144 59q-84 -1 -144 -59t-60 -136zM840 1434v-1434h-160v63q-25 -31 -86 -57t-121 -26q-158 0 -259 95t-101 236v402q0 139 101 235t259 96q59 0 121 -26t86 -57v473h160z" glyph-name="d" horiz-adv-x="983" unicode="d"/><glyph d="M279 700v-100h393v100q0 78 -58 136t-139 59q-82 -1 -139 -59t-57 -136zM672 334h155q0 -162 -96 -258t-254 -96t-256 95t-98 236v402q0 139 98 235t255 96t254 -96t97 -235v-262h-548v-127q0 -78 57 -136t140 -59q84 1 140 59t56 146z" glyph-name="e" horiz-adv-x="950" unicode="e"/><glyph d="M41 877v147h143v147q0 119 83 201t187 82t199 -63l-92 -123q-57 39 -100 39t-80 -38t-37 -91v-154h260v-147h-260v-877h-160v877h-143z" glyph-name="f" horiz-adv-x="673" unicode="f"/><glyph d="M592 600v133q0 70 -48 117t-116 47t-115 -47t-47 -117v-133q0 -70 47 -117t113 -47t117 48q49 48 49 116zM340 240v61q-100 31 -167 113t-67 186v135q0 127 96 218t228 91q86 0 156 -40l61 83q47 63 162 64v-147q-55 0 -74 -27l-45 -68q59 -72 60 -174v-135 q0 -104 -70 -189t-172 -112v-59q0 -29 35 -52l172 -116q133 -88 133 -207q0 -89 -66 -149q-118 -108 -340 -105q-154 -1 -268 67t-113 183v47h160v-47q0 -41 65 -71t166 -30t170 28q68 28 68 73t-41 71l-223 148q-34 23 -60 67t-26 93z" glyph-name="g" horiz-adv-x="909" unicode="g"/><glyph d="M870 0h-159v694q-1 80 -57 142t-139 61q-83 0 -147 -58t-65 -134v-705h-160v1434h160v-471q91 81 231 81t238 -98t98 -239v-707z" glyph-name="h" horiz-adv-x="1003" unicode="h"/><glyph d="M143 1251v183h185v-183h-185zM156 0v1024h159v-1024h-159z" glyph-name="i" horiz-adv-x="471" unicode="i"/><glyph d="M164 1251v183h184v-183h-184zM336 1024v-1133q0 -119 -82 -199t-188 -81q-106 0 -199 63l90 123q57 -39 101 -39t80 37t36 90v1139h162z" glyph-name="j" horiz-adv-x="491" unicode="j"/><glyph d="M143 0v1434h158v-893l371 483h202l-382 -487l399 -537h-197l-393 541v-541h-158z" glyph-name="k" horiz-adv-x="931" unicode="k"/><glyph d="M143 0v1434h160v-1434h-160z" glyph-name="l" horiz-adv-x="446" unicode="l"/><glyph d="M807 0h-160v737q0 66 -48 113t-120 47t-125 -50t-53 -120v-727h-158v1024h158v-76q76 96 213 96t225 -118q96 119 260 118q129 0 216 -86t88 -219v-739h-160v727q0 76 -47 123t-117 47t-121 -50t-51 -120v-727z" glyph-name="m" horiz-adv-x="1435" unicode="m"/><glyph d="M870 0h-159v690q-1 84 -57 146t-138 61q-82 0 -148 -57t-65 -135v-705h-160v1024h160v-61q91 81 231 81t238 -98t98 -239v-707z" glyph-name="n" horiz-adv-x="1003" unicode="n"/><glyph d="M688 324v376q0 78 -59 136t-143 59q-84 0 -144 -58q-59 -58 -59 -137v-376q0 -78 60 -136t144 -59q84 0 143 58q58 59 58 137zM848 713v-402q0 -141 -100 -236t-262 -95t-262 95q-101 95 -101 236v402q0 139 101 235t262 96q162 0 262 -96t100 -235z" glyph-name="o" horiz-adv-x="970" unicode="o"/><glyph d="M711 324v376q1 78 -59 136t-143 59q-83 0 -144 -58t-62 -137v-376q1 -78 61 -136t144 -59q84 1 144 59t59 136zM143 -369v1393h160v-63q25 31 86 57t121 26q158 0 259 -95t101 -236v-402q0 -139 -101 -235t-259 -96q-58 0 -120 26t-87 57v-432h-160z" glyph-name="p" horiz-adv-x="993" unicode="p"/><glyph d="M283 700v-376q0 -78 59 -136t143 -59q84 0 145 58q60 58 60 137v376q0 78 -61 136t-145 59q-84 -1 -142 -59q-59 -58 -59 -136zM850 1024v-1393h-160v432q-25 -31 -86 -57t-121 -26q-158 0 -259 96t-101 235v402q0 141 100 236t260 95q59 0 121 -26t86 -57v63h160z" glyph-name="q" horiz-adv-x="993" unicode="q"/><glyph d="M520 897q-86 0 -152 -61t-65 -140v-696h-160v1024h160v-88q82 109 232 108l67 -8v-149q-45 10 -82 10z" glyph-name="r" horiz-adv-x="643" unicode="r"/><glyph d="M778 731h-166q0 66 -49 116t-111 50t-108 -36t-45 -90q0 -54 50 -93t121 -66q70 -26 142 -60t122 -105t50 -183t-99 -198t-228 -86h-21q-143 0 -238 96t-96 223v25h160v-19q0 -72 53 -125t127 -53h13q69 0 117 44q48 43 48 105t-50 103t-122 69t-142 60q-71 33 -121 96 t-50 156q0 127 93 206q93 78 236 78q142 0 228 -100t86 -213z" glyph-name="s" horiz-adv-x="886" unicode="s"/><glyph d="M41 877v147h143v291h160v-291h334v-147h-334v-623q0 -53 37 -89t88 -36t87 34t36 81v24h151v-24q0 -106 -80 -186q-81 -78 -197 -78t-199 80t-83 200v617h-143z" glyph-name="t" horiz-adv-x="794" unicode="t"/><glyph d="M133 1024h160v-690q0 -84 56 -146t138 -61q82 0 148 57t65 135v705h160v-1024h-160v61q-92 -81 -231 -81t-238 98q-98 98 -98 239v707z" glyph-name="u" horiz-adv-x="1003" unicode="u"/><glyph d="M283 1024v-385l172 -510h45l172 510v385h159v-387l-221 -637h-266l-221 637v387h160z" glyph-name="v" horiz-adv-x="954" unicode="v"/><glyph d="M985 1024h160v-397l-127 -627h-250l-129 500h-10l-129 -500h-250l-127 627v397h160v-381l86 -493h20l141 534h205l144 -534h20l86 493v381z" glyph-name="w" horiz-adv-x="1267" unicode="w"/><glyph d="M242 1024l192 -356l191 356h182l-281 -500l291 -524h-178l-205 379l-205 -379h-178l289 524l-279 500h181z" glyph-name="x" horiz-adv-x="868" unicode="x"/><glyph d="M213 1024l270 -782l267 782h172l-506 -1393h-162l141 402l-354 991h172z" glyph-name="y" horiz-adv-x="962" unicode="y"/><glyph d="M762 147v-147h-670v154l477 723h-448v147h633v-158l-475 -719h483z" glyph-name="z" horiz-adv-x="854" unicode="z"/><glyph d="M594 -227v-162q-168 1 -285 111t-116 268v387q0 37 -33 63t-78 27v154q45 1 78 27t33 61v370q0 158 116 268q117 110 285 109v-166q-98 0 -164 -61t-65 -152v-348q0 -119 -119 -188q119 -66 119 -187v-366q0 -92 65 -154q66 -61 164 -61z" glyph-name="braceleft" horiz-adv-x="686" unicode="{"/><glyph d="M174 -369v1803h160v-1803h-160z" glyph-name="bar" horiz-adv-x="507" unicode="|"/><glyph d="M92 -389v162q98 0 164 61t66 154v366q0 121 118 187q-119 70 -118 188v348q0 89 -66 151t-164 62v166q168 0 285 -110t117 -267v-370q0 -35 32 -62t78 -26v-154q-45 0 -78 -27t-32 -63v-387q0 -158 -117 -268t-285 -111z" glyph-name="braceright" horiz-adv-x="686" unicode="}"/><glyph d="M414 733q74 0 211 -57q137 -58 188 -58t83 31t42 68h158q-16 -100 -92 -177t-170 -77t-236 57q-141 58 -185 58t-77 -30t-47 -69h-156q12 100 91 177t190 77z" glyph-name="asciitilde" horiz-adv-x="1228" unicode="~"/><glyph d="M346 686v-1079h-166v1079h166zM164 823v201h201v-201h-201z" glyph-name="exclamdown" horiz-adv-x="528" unicode="¡"/><glyph d="M434 -100v100q-137 18 -219 110t-82 220v372q0 123 82 214t219 112v96h160v-102q118 -29 188 -118t70 -210h-160q0 82 -55 138t-138 57q-83 -1 -145 -61t-61 -138v-352q0 -78 60 -136q61 -58 145 -58t143 58q59 60 59 144h160q0 -129 -72 -222t-194 -120v-104h-160z" glyph-name="cent" horiz-adv-x="983" unicode="¢"/><glyph d="M885 166v-166h-727v166h57v412h-123v161h123v381q0 136 98 234q97 98 237 98t238 -97t99 -235v-80h-172v90q0 66 -47 113t-115 47t-116 -47t-48 -113v-391h254v-161h-254v-412h496z" glyph-name="sterling" horiz-adv-x="999" unicode="£"/><glyph d="M588 326q112 0 192 81t80 191t-80 192q-80 80 -190 80t-193 -80q-82 -80 -82 -192t80 -192t193 -80zM588 164q-132 0 -242 74l-98 -97l-115 117l96 98q-73 113 -73 241t75 245l-98 98l115 115l98 -99q115 74 243 74t242 -74l99 99l117 -115l-99 -98q74 -113 74 -246 t-72 -240l97 -98l-117 -117l-99 97q-111 -74 -243 -74z" glyph-name="currency" horiz-adv-x="1179" unicode="¤"/><glyph d="M932 557v-160h-320v-397h-174v397h-319v160h319v119l-10 24h-309v162h235l-262 572h187l245 -560l252 560h185l-263 -572h234v-162h-309l-11 -20v-123h320z" glyph-name="yen" horiz-adv-x="1052" unicode="¥"/><glyph d="M174 -369v742h160v-742h-160zM174 690v746h160v-746h-160z" glyph-name="brokenbar" horiz-adv-x="507" unicode="¦"/><glyph d="M739 624q0 64 -54 110t-171 102t-158 82q-53 -43 -53 -109t56 -113t171 -100t156 -80q53 44 53 108zM186 299h168q0 -154 158 -154h10q76 0 113 34t37 81t-56 90t-135 79q-81 36 -159 79t-134 117q-55 74 -55 172q0 141 105 231q-41 59 -41 164q0 104 85 182t240 78h15 q165 0 243 -86t78 -231h-170q0 152 -158 151h-8q-78 0 -114 -34t-37 -80q0 -46 55 -90t135 -80t160 -78t135 -117q55 -74 55 -170q0 -137 -106 -234q43 -72 43 -149q0 -117 -86 -196t-240 -78h-14q-164 0 -243 86t-79 233z" glyph-name="section" horiz-adv-x="1044" unicode="§"/><glyph d="M356 1251v183h183v-183h-183zM10 1251v183h183v-183h-183z" glyph-name="dieresis" horiz-adv-x="548" unicode="¨"/><glyph d="M719 1454h35q240 0 412 -166t173 -399v-344q0 -233 -173 -399t-412 -166h-35q-240 0 -413 166t-173 399v344q0 233 173 399t413 166zM719 133h35q170 0 295 120t125 286v358q0 166 -125 285t-295 118h-35q-170 0 -297 -120t-127 -283v-358q0 -166 127 -286t297 -120z M604 866v-286q0 -54 41 -96t97 -42t96 40q39 40 39 102h149q0 -125 -79 -208t-205 -83t-206 76t-79 186v338q0 109 80 185q81 76 203 77q122 0 200 -84t78 -207h-150q0 63 -34 103q-36 39 -92 39t-97 -42t-41 -98z" glyph-name="copyright" horiz-adv-x="1472" unicode="©"/><glyph d="M586 696v-118h-459v118h459zM345 907q42 0 78 28t36 58v105l-121 -8q-41 -4 -71 -30q-29 -26 -29 -61t32 -63t75 -29zM459 799v26q-47 -39 -129 -38t-150 61t-68 147q0 86 65 148q65 61 155 67l127 9v14q0 39 -27 71t-67 31q-78 0 -93 -78h-131q29 197 224 197 q102 0 161 -60t60 -155v-440h-127z" glyph-name="ordfeminine" horiz-adv-x="698" unicode="ª"/><glyph d="M942 272h-192l-250 324l250 326h190l-252 -326zM575 272h-192l-250 324l250 326h190l-251 -326z" glyph-name="guillemotleft" unicode="«"/><glyph d="M1040 854v-573h-163v409h-744v164h907z" glyph-name="logicalnot" horiz-adv-x="1193" unicode="¬"/><glyph glyph-name="uni00AD" horiz-adv-x="1705" unicode="­"/><glyph d="M719 1454h35q240 0 412 -166t173 -399v-344q0 -233 -173 -399t-412 -166h-35q-240 0 -413 166t-173 399v344q0 233 173 399t413 166zM719 133h35q170 0 295 120t125 286v358q0 166 -125 285t-295 118h-35q-170 0 -297 -120t-127 -283v-358q0 -166 127 -286t297 -120z M840 791v133q0 23 -18 41t-40 18h-143v-254h143q22 -1 40 17t18 45zM643 596v-274h-149v813h292q82 1 144 -61t61 -144v-125q0 -111 -96 -178l139 -305h-162l-124 274h-105z" glyph-name="registered" horiz-adv-x="1472" unicode="®"/><glyph d="M10 1223v151h619v-151h-619z" glyph-name="macron" horiz-adv-x="638" unicode="¯"/><glyph d="M246 1157q0 -68 48 -117t117 -49t117 49t47 117q0 68 -48 117q-49 49 -117 49t-116 -49t-48 -117zM113 1157q0 123 88 211t211 88t211 -88t88 -211t-88 -211t-211 -88t-211 88t-88 211z" glyph-name="degree" horiz-adv-x="823" unicode="°"/><glyph d="M1069 301v-162h-936v162h936zM516 1044h168v-262h383v-161h-383v-261h-168v261h-383v161h383v262z" glyph-name="plusminus" horiz-adv-x="1202" unicode="±"/><glyph d="M303 1182h-158q0 124 75 198t181 74q105 0 181 -68t76 -179t-118 -217q-50 -44 -100 -85q-125 -102 -139 -184h356v-146h-524v111q0 82 37 152t89 116q53 46 105 88q127 99 125 181q-1 37 -25 61t-65 25q-41 0 -69 -34t-27 -93z" glyph-name="uni00B2" horiz-adv-x="770" unicode="²"/><glyph d="M160 1286v148h446v-117l-121 -160q59 -27 103 -82t43 -121v-147q0 -98 -76 -171t-176 -73h-12q-104 0 -180 70q-75 70 -74 174v24h163v-24q0 -41 28 -69t69 -28t67 28t27 69v147q0 29 -18 48t-48 20h-116v127l106 137h-231z" glyph-name="uni00B3" horiz-adv-x="763" unicode="³"/><glyph d="M182 1151h-182l260 303h234z" glyph-name="acute" horiz-adv-x="493" unicode="´"/><glyph d="M133 -369v1393h160v-696q0 -80 56 -140t137 -61q81 0 148 57t66 135v705h160v-1024h-160v61q-88 -81 -215 -81t-194 71v-420h-158z" glyph-name="uni00B5" horiz-adv-x="993" unicode="µ"/><glyph d="M430 -369v1008q-152 25 -255 133t-103 268t118 276q119 116 289 116h398v-1801h-160v1649h-127v-1649h-160z" glyph-name="paragraph" horiz-adv-x="1009" unicode="¶"/><glyph d="M133 496v200h201v-200h-201z" glyph-name="periodcentered" horiz-adv-x="466" unicode="·"/><glyph d="M113 -369v107h123q18 0 30 15q28 35 0 67q-12 14 -30 14h-103v166h119v-57q66 0 115 -46t49 -111t-48 -110t-114 -45h-141z" glyph-name="cedilla" horiz-adv-x="466" unicode="¸"/><glyph d="M92 1294v140h297v-859h-160v719h-137z" glyph-name="uni00B9" horiz-adv-x="542" unicode="¹"/><glyph d="M586 696v-118h-459v118h459zM459 1001v238q0 37 -32 66t-76 29t-75 -30q-31 -28 -30 -65v-238q0 -37 32 -67t74 -31q42 1 75 31q32 30 32 67zM586 1239v-238q0 -92 -66 -153q-66 -62 -169 -62t-171 62t-67 153v238q0 92 67 154q68 61 171 61t169 -62t66 -153z" glyph-name="ordmasculine" horiz-adv-x="698" unicode="º"/><glyph d="M326 272h-193l254 324l-252 326h191l249 -326zM692 272h-192l254 324l-252 326h190l250 -326z" glyph-name="guillemotright" unicode="»"/><glyph d="M133 1294v140h297v-859h-160v719h-137zM842 172v119l268 557h162l-252 -529h170v189h160v-189h73v-147h-73v-172h-160v172h-348zM287 2l727 1430h172l-725 -1430h-174z" glyph-name="onequarter" horiz-adv-x="1556" unicode="¼"/><glyph d="M1090 606h-158q0 123 75 198t181 75t181 -68t75 -180t-118 -216q-50 -44 -100 -85q-124 -102 -139 -185h357v-145h-524v111q0 81 36 151t90 117q52 47 104 88q126 99 126 180q0 37 -25 62t-65 25t-68 -35q-28 -34 -28 -93zM133 1294v140h297v-859h-160v719h-137zM270 0 l705 1417h170l-707 -1417h-168z" glyph-name="onehalf" horiz-adv-x="1576" unicode="½"/><glyph d="M997 172v119l269 557h161l-251 -529h170v189h159v-189h74v-147h-74v-172h-159v172h-349zM180 1286v148h447v-117l-121 -160q59 -27 102 -82t43 -121v-147q0 -98 -76 -171t-176 -73h-12q-104 0 -179 70t-75 174v24h164v-24q0 -41 28 -69q29 -28 69 -28t67 28t26 69v147 q0 29 -18 48t-47 20h-117v127l107 137h-232zM446 0l705 1417h170l-705 -1417h-170z" glyph-name="threequarters" horiz-adv-x="1712" unicode="¾"/><glyph d="M631 1024v-203h-207v203h207zM715 -41h170q0 -175 -111 -281q-112 -106 -276 -106t-275 103t-111 283t117 296q49 49 98 99q117 122 115 333h170q0 -135 -34 -234q-34 -100 -80 -156t-94 -103q-114 -113 -115 -256q0 -87 61 -143q60 -56 152 -56t152 60t61 161z" glyph-name="questiondown" horiz-adv-x="966" unicode="¿"/><glyph d="M727 1561h-182l-312 303h234zM754 616l-197 656h-39l-194 -656h430zM932 0h-174v457h-443v-457h-172v612l248 822h293l248 -826v-608z" glyph-name="Agrave" unicode="À"/><glyph d="M535 1561h-183l260 303h234zM754 616l-197 656h-39l-194 -656h430zM932 0h-174v457h-443v-457h-172v612l248 822h293l248 -826v-608z" glyph-name="Aacute" unicode="Á"/><glyph d="M387 1563h-147l217 301h155l222 -301h-150l-152 153zM754 616l-197 656h-39l-194 -656h430zM932 0h-174v457h-443v-457h-172v612l248 822h293l248 -826v-608z" glyph-name="Acircumflex" unicode="Â"/><glyph d="M219 1589q1 84 61 156t126 72t147 -45q81 -46 105 -46t37 26t14 52h147q0 -84 -59 -156t-123 -71q-64 0 -148 45q-82 45 -106 45q-47 0 -58 -78h-143zM754 616l-197 656h-39l-194 -656h430zM932 0h-174v457h-443v-457h-172v612l248 822h293l248 -826v-608z" glyph-name="Atilde" unicode="Ã"/><glyph d="M639 1661v182h182v-182h-182zM293 1661v182h182v-182h-182zM754 616l-197 656h-39l-194 -656h430zM932 0h-174v457h-443v-457h-172v612l248 822h293l248 -826v-608z" glyph-name="Adieresis" unicode="Ä"/><glyph d="M535 1763q-27 0 -43 -17t-17 -43q1 -26 17 -43q16 -18 43 -18t44 18t17 43q0 26 -17 43t-44 17zM375 1701q0 69 46 116t114 47q67 0 115 -47t48 -116t-48 -116t-116 -47t-113 47q-46 47 -46 116zM754 616l-197 656h-39l-194 -656h430zM932 0h-174v457h-443v-457h-172v612 l248 822h293l248 -826v-608z" glyph-name="Aring" unicode="Å"/><glyph d="M641 616v656h-123l-192 -656h315zM1245 1434v-162h-428v-436h379v-160h-379v-514h445v-162h-621v457h-324v-457h-174v612l250 822h852z" glyph-name="AE" horiz-adv-x="1363" unicode="Æ"/><glyph d="M412 -369v107h123q18 0 30 15q28 35 0 67q-12 14 -30 14h-103v153q-111 21 -195 103q-114 111 -114 268v719q0 158 114 268t275 109h10q162 0 275 -111t112 -268h-172q0 88 -64 151q-65 62 -157 62t-156 -61t-63 -152v-719q0 -90 63 -152q64 -62 156 -62t157 62t64 150 v43h172v-41q1 -158 -107 -262t-251 -114v-37q66 0 115 -46t49 -111t-48 -110t-114 -45h-141z" glyph-name="Ccedilla" horiz-adv-x="1011" unicode="Ç"/><glyph d="M711 1561h-183l-311 303h234zM164 1434h700v-162h-528v-436h479v-160h-479v-514h545v-162h-717v1434z" glyph-name="Egrave" horiz-adv-x="983" unicode="È"/><glyph d="M510 1561h-182l260 303h233zM164 1434h700v-162h-528v-436h479v-160h-479v-514h545v-162h-717v1434z" glyph-name="Eacute" horiz-adv-x="983" unicode="É"/><glyph d="M346 1563h-147l217 301h155l222 -301h-150l-151 153zM164 1434h700v-162h-528v-436h479v-160h-479v-514h545v-162h-717v1434z" glyph-name="Ecircumflex" horiz-adv-x="983" unicode="Ê"/><glyph d="M598 1661v182h182v-182h-182zM252 1661v182h182v-182h-182zM164 1434h700v-162h-528v-436h479v-160h-479v-514h545v-162h-717v1434z" glyph-name="Edieresis" horiz-adv-x="983" unicode="Ë"/><glyph d="M434 1561h-182l-311 303h233zM336 1434v-1434h-172v1434h172z" glyph-name="Igrave" horiz-adv-x="499" unicode="Ì"/><glyph d="M246 1561h-183l261 303h233zM336 1434v-1434h-172v1434h172z" glyph-name="Iacute" horiz-adv-x="499" unicode="Í"/><glyph d="M100 1563h-147l217 301h156l221 -301h-150l-151 153zM336 1434v-1434h-172v1434h172z" glyph-name="Icircumflex" horiz-adv-x="499" unicode="Î"/><glyph d="M342 1661v182h182v-182h-182zM-4 1661v182h182v-182h-182zM326 1434v-1434h-172v1434h172z" glyph-name="Idieresis" horiz-adv-x="479" unicode="Ï"/><glyph d="M522 836v-160h-215v-514h199q94 0 157 61q62 61 62 152v682q0 90 -62 152t-157 63h-199v-436h215zM901 1057v-680q0 -157 -114 -267t-275 -110h-379v676h-123v160h123v598h379q162 0 276 -110t113 -267z" glyph-name="Eth" horiz-adv-x="1024" unicode="Ð"/><glyph d="M432 1667q-45 0 -55 -78h-144q1 84 61 156t138 72q51 0 133 -45q83 -46 107 -46t38 26t13 52h147q0 -84 -59 -156t-123 -71q-64 0 -147 45q-82 45 -109 45zM770 1434h172v-1434h-188l-443 1096l15 -115v-981h-172v1434h188l442 -1094l-14 111v983z" glyph-name="Ntilde" horiz-adv-x="1105" unicode="Ñ"/><glyph d="M743 1561h-182l-311 303h233zM780 354v721q0 89 -62 151t-157 62h-22q-93 0 -157 -61t-65 -152v-719q-1 -90 63 -152t159 -63h22q95 -1 157 61t62 152zM956 1077v-721q0 -156 -114 -266t-275 -110h-35q-162 0 -276 110t-113 268v719q0 158 114 268t275 109h35 q161 0 275 -110t114 -267z" glyph-name="Ograve" horiz-adv-x="1099" unicode="Ò"/><glyph d="M551 1561h-182l260 303h233zM780 354v721q0 89 -62 151t-157 62h-22q-93 0 -157 -61t-65 -152v-719q-1 -90 63 -152t159 -63h22q95 -1 157 61t62 152zM956 1077v-721q0 -156 -114 -266t-275 -110h-35q-162 0 -276 110t-113 268v719q0 158 114 268t275 109h35 q161 0 275 -110t114 -267z" glyph-name="Oacute" horiz-adv-x="1099" unicode="Ó"/><glyph d="M399 1563h-147l217 301h156l221 -301h-150l-151 153zM780 354v721q0 89 -62 151t-157 62h-22q-93 0 -157 -61t-65 -152v-719q-1 -90 63 -152t159 -63h22q95 -1 157 61t62 152zM956 1077v-721q0 -156 -114 -266t-275 -110h-35q-162 0 -276 110t-113 268v719q0 158 114 268 t275 109h35q161 0 275 -110t114 -267z" glyph-name="Ocircumflex" horiz-adv-x="1099" unicode="Ô"/><glyph d="M430 1667q-45 0 -55 -78h-144q1 84 61 156t126 72t147 -45q81 -46 105 -46t38 26t13 52h147q0 -84 -59 -156t-123 -71q-64 0 -147 45q-82 45 -109 45zM780 354v721q0 89 -62 151t-157 62h-22q-93 0 -157 -61t-65 -152v-719q-1 -90 63 -152t159 -63h22q95 -1 157 61 t62 152zM956 1077v-721q0 -156 -114 -266t-275 -110h-35q-162 0 -276 110t-113 268v719q0 158 114 268t275 109h35q161 0 275 -110t114 -267z" glyph-name="Otilde" horiz-adv-x="1099" unicode="Õ"/><glyph d="M651 1661v182h183v-182h-183zM305 1661v182h182v-182h-182zM780 354v721q0 89 -62 151t-157 62h-22q-93 0 -157 -61t-65 -152v-719q-1 -90 63 -152t159 -63h22q95 -1 157 61t62 152zM956 1077v-721q0 -156 -114 -266t-275 -110h-35q-162 0 -276 110t-113 268v719 q0 158 114 268t275 109h35q161 0 275 -110t114 -267z" glyph-name="Odieresis" horiz-adv-x="1099" unicode="Ö"/><glyph d="M133 881l115 114l282 -282l283 282l115 -114l-283 -285l283 -281l-115 -116l-283 284l-280 -282l-117 114l281 281z" glyph-name="multiply" horiz-adv-x="1060" unicode="×"/><glyph d="M297 1075v-713l25 82l356 797q-61 47 -137 47h-23q-94 0 -158 -61q-63 -62 -63 -152zM760 354v721l-19 -76l-364 -811q63 -47 141 -47h23q95 -1 157 61t62 152zM123 1077q0 158 114 268t275 109h35q111 0 201 -55l16 35h172l-66 -148q66 -94 66 -209v-721 q0 -156 -114 -266t-275 -110h-35q-111 0 -205 55l-14 -35h-170l65 145q-66 94 -65 213v719z" glyph-name="Oslash" horiz-adv-x="1058" unicode="Ø"/><glyph d="M748 1561h-183l-311 303h233zM791 1434h176v-1078q0 -156 -114 -266t-275 -110h-35q-162 0 -276 110t-113 268v1076h174v-1078q0 -90 63 -152t158 -63h22q95 -1 157 61t63 152v1080z" glyph-name="Ugrave" horiz-adv-x="1120" unicode="Ù"/><glyph d="M549 1561h-182l260 303h233zM791 1434h176v-1078q0 -156 -114 -266t-275 -110h-35q-162 0 -276 110t-113 268v1076h174v-1078q0 -90 63 -152t158 -63h22q95 -1 157 61t63 152v1080z" glyph-name="Uacute" horiz-adv-x="1120" unicode="Ú"/><glyph d="M410 1563h-148l217 301h156l221 -301h-149l-152 153zM791 1434h176v-1078q0 -156 -114 -266t-275 -110h-35q-162 0 -276 110t-113 268v1076h174v-1078q0 -90 63 -152t158 -63h22q95 -1 157 61t63 152v1080z" glyph-name="Ucircumflex" horiz-adv-x="1120" unicode="Û"/><glyph d="M662 1661v182h182v-182h-182zM315 1661v182h183v-182h-183zM791 1434h176v-1078q0 -156 -114 -266t-275 -110h-35q-162 0 -276 110t-113 268v1076h174v-1078q0 -90 63 -152t158 -63h22q95 -1 157 61t63 152v1080z" glyph-name="Udieresis" horiz-adv-x="1120" unicode="Ü"/><glyph d="M514 1561h-182l260 303h233zM602 0h-178v678l-373 756h191l272 -539l270 539h193l-375 -756v-678z" glyph-name="Yacute" horiz-adv-x="1028" unicode="Ý"/><glyph d="M678 606v299q0 63 -47 109t-113 47h-213v-608h213q66 0 113 45t47 108zM133 0v1434h172v-207h219q136 0 232 -93t96 -227v-297q0 -133 -95 -226t-233 -93h-219v-291h-172z" glyph-name="Thorn" horiz-adv-x="944" unicode="Þ"/><glyph d="M293 1073v-1073h-160v1075q1 157 107 267t258 110h16q150 0 253 -103t103 -241v-164q-90 -4 -153 -43t-63 -88t33 -95q34 -46 83 -87t97 -88q116 -114 116 -250q0 -137 -89 -225t-216 -88t-216 88t-89 213v30h164v-41q0 -59 42 -101t100 -42t100 43t42 100q0 99 -116 196 q-49 40 -99 84q-117 105 -117 255q-1 96 63 165t159 89v14q1 100 -59 167t-147 67t-149 -68t-63 -166z" glyph-name="germandbls" horiz-adv-x="1085" unicode="ß"/><glyph d="M639 1151h-182l-312 303h234zM442 127q84 0 148 51q63 51 63 119v203l-223 -15q-76 -4 -127 -57t-51 -126t53 -124t137 -51zM653 0v63q-84 -83 -224 -83t-239 91q-98 91 -98 226t96 231t234 105l231 14v53q0 80 -47 138t-129 57q-150 0 -172 -150h-162q13 135 103 217 t240 82t239 -94q88 -94 88 -237v-713h-160z" glyph-name="agrave" horiz-adv-x="946" unicode="à"/><glyph d="M451 1151h-183l260 303h234zM442 127q84 0 148 51q63 51 63 119v203l-223 -15q-76 -4 -127 -57t-51 -126t53 -124t137 -51zM653 0v63q-84 -83 -224 -83t-239 91q-98 91 -98 226t96 231t234 105l231 14v53q0 80 -47 138t-129 57q-150 0 -172 -150h-162q13 135 103 217 t240 82t239 -94q88 -94 88 -237v-713h-160z" glyph-name="aacute" horiz-adv-x="946" unicode="á"/><glyph d="M324 1153h-148l217 301h156l221 -301h-149l-152 154zM442 127q84 0 148 51q63 51 63 119v203l-223 -15q-76 -4 -127 -57t-51 -126t53 -124t137 -51zM653 0v63q-84 -83 -224 -83t-239 91q-98 91 -98 226t96 231t234 105l231 14v53q0 80 -47 138t-129 57q-150 0 -172 -150 h-162q13 135 103 217t240 82t239 -94q88 -94 88 -237v-713h-160z" glyph-name="acircumflex" horiz-adv-x="946" unicode="â"/><glyph d="M352 1257q-45 0 -55 -77h-143q0 84 60 156t126 71q66 0 147 -45t105 -45t38 25q13 26 13 53h148q1 -84 -59 -156t-124 -72t-147 45q-82 45 -109 45zM442 127q84 0 148 51q63 51 63 119v203l-223 -15q-76 -4 -127 -57t-51 -126t53 -124t137 -51zM653 0v63 q-84 -83 -224 -83t-239 91q-98 91 -98 226t96 231t234 105l231 14v53q0 80 -47 138t-129 57q-150 0 -172 -150h-162q13 135 103 217t240 82t239 -94q88 -94 88 -237v-713h-160z" glyph-name="atilde" horiz-adv-x="946" unicode="ã"/><glyph d="M575 1251v183h183v-183h-183zM229 1251v183h183v-183h-183zM442 127q84 0 148 51q63 51 63 119v203l-223 -15q-76 -4 -127 -57t-51 -126t53 -124t137 -51zM653 0v63q-84 -83 -224 -83t-239 91q-98 91 -98 226t96 231t234 105l231 14v53q0 80 -47 138t-129 57 q-150 0 -172 -150h-162q13 135 103 217t240 82t239 -94q88 -94 88 -237v-713h-160z" glyph-name="adieresis" horiz-adv-x="946" unicode="ä"/><glyph d="M412 1293q0 -26 16 -43t43 -17t44 17t17 43t-17 43q-17 18 -44 18t-43 -18t-16 -43zM635 1291q0 -69 -48 -115t-116 -48q-68 0 -114 47t-46 116t46 116t114 47t116 -47t48 -116zM442 127q84 0 148 51q63 51 63 119v203l-223 -15q-76 -4 -127 -57t-51 -126t53 -124 t137 -51zM653 0v63q-84 -83 -224 -83t-239 91q-98 91 -98 226t96 231t234 105l231 14v53q0 80 -47 138t-129 57q-150 0 -172 -150h-162q13 135 103 217t240 82t239 -94q88 -94 88 -237v-713h-160z" glyph-name="aring" horiz-adv-x="946" unicode="å"/><glyph d="M997 897q-74 0 -126 -56t-52 -132v-88h348v79q0 80 -48 138t-122 59zM476 125q75 0 128 49t53 117v182h-188q-68 0 -118 -50t-50 -122t50 -124t125 -52zM1167 336h158q0 -160 -89 -258t-241 -98t-252 114q-55 -55 -117 -85q-62 -29 -178 -29t-210 93t-95 226 q1 133 97 227t223 95h194v79q0 82 -42 140t-109 57q-68 0 -108 -42t-50 -112h-155q12 133 96 217t213 84q162 0 241 -110q93 110 247 110t244 -95t91 -236v-240h-506v-156q0 -78 51 -133t126 -55q75 1 123 59t48 148z" glyph-name="ae" horiz-adv-x="1449" unicode="æ"/><glyph d="M340 -369v107h123q18 0 31 15q12 15 12 33t-12 34q-12 14 -31 14h-103v159q-88 22 -151 82q-100 95 -100 238v400q0 139 101 235t260 96t257 -99t98 -249h-159q0 86 -54 142t-139 57q-84 0 -144 -58t-61 -137v-376q0 -78 60 -136t145 -59q84 0 142 60t59 145h160 q0 -156 -98 -254t-257 -100v-37q66 0 115 -46t49 -111t-48 -110t-114 -45h-141z" glyph-name="ccedilla" horiz-adv-x="937" unicode="ç"/><glyph d="M670 1151h-183l-311 303h234zM279 700v-100h393v100q0 78 -58 136t-139 59q-82 -1 -139 -59t-57 -136zM672 334h155q0 -162 -96 -258t-254 -96t-256 95t-98 236v402q0 139 98 235t255 96t254 -96t97 -235v-262h-548v-127q0 -78 57 -136t140 -59q84 1 140 59t56 146z" glyph-name="egrave" horiz-adv-x="950" unicode="è"/><glyph d="M465 1151h-182l260 303h233zM279 700v-100h393v100q0 78 -58 136t-139 59q-82 -1 -139 -59t-57 -136zM672 334h155q0 -162 -96 -258t-254 -96t-256 95t-98 236v402q0 139 98 235t255 96t254 -96t97 -235v-262h-548v-127q0 -78 57 -136t140 -59q84 1 140 59t56 146z" glyph-name="eacute" horiz-adv-x="950" unicode="é"/><glyph d="M326 1153h-148l217 301h156l221 -301h-149l-152 154zM279 700v-100h393v100q0 78 -58 136t-139 59q-82 -1 -139 -59t-57 -136zM672 334h155q0 -162 -96 -258t-254 -96t-256 95t-98 236v402q0 139 98 235t255 96t254 -96t97 -235v-262h-548v-127q0 -78 57 -136t140 -59 q84 1 140 59t56 146z" glyph-name="ecircumflex" horiz-adv-x="950" unicode="ê"/><glyph d="M578 1251v183h182v-183h-182zM231 1251v183h183v-183h-183zM279 700v-100h393v100q0 78 -58 136t-139 59q-82 -1 -139 -59t-57 -136zM672 334h155q0 -162 -96 -258t-254 -96t-256 95t-98 236v402q0 139 98 235t255 96t254 -96t97 -235v-262h-548v-127q0 -78 57 -136 t140 -59q84 1 140 59t56 146z" glyph-name="edieresis" horiz-adv-x="950" unicode="ë"/><glyph d="M408 1151h-183l-311 303h233zM145 0v1024h160v-1024h-160z" glyph-name="igrave" horiz-adv-x="450" unicode="ì"/><glyph d="M209 1151h-182l260 303h233zM145 0v1024h160v-1024h-160z" glyph-name="iacute" horiz-adv-x="450" unicode="í"/><glyph d="M86 1153h-147l217 301h155l221 -301h-149l-152 154zM145 0v1024h160v-1024h-160z" glyph-name="icircumflex" horiz-adv-x="450" unicode="î"/><glyph d="M307 1251v183h182v-183h-182zM-39 1251v183h182v-183h-182zM145 0v1024h160v-1024h-160z" glyph-name="idieresis" horiz-adv-x="450" unicode="ï"/><glyph d="M688 324v299q0 78 -59 136t-143 58t-144 -58q-59 -58 -59 -136v-299q0 -78 60 -136t144 -59q84 0 143 58q58 59 58 137zM848 311q0 -141 -100 -236t-262 -95t-262 95q-101 95 -101 236v324q0 139 101 235q102 96 248 96t216 -63v154l-2 26l-178 -63v143l133 47 q-63 74 -156 74h-114v150h114q211 0 318 -166l166 57v-143l-125 -43q4 -12 4 -82v-746z" glyph-name="eth" horiz-adv-x="978" unicode="ð"/><glyph d="M377 1257q-45 0 -55 -77h-144q0 84 60 156t126 71q66 0 148 -45t106 -45q24 -1 36 25q13 26 14 53h147q0 -84 -59 -156q-60 -72 -124 -72t-146 45t-109 45zM860 0h-160v690q0 84 -56 146t-138 61q-82 0 -148 -57t-65 -135v-705h-160v1024h160v-61q92 81 231 81 q140 0 238 -98t98 -239v-707z" glyph-name="ntilde" horiz-adv-x="993" unicode="ñ"/><glyph d="M731 1151h-182l-311 303h233zM688 700q0 78 -59 136t-143 59q-84 0 -144 -58q-59 -58 -59 -137v-376q0 -78 60 -136t144 -59q84 0 143 58q58 58 58 137v376zM848 311q0 -141 -100 -236t-262 -95t-262 95q-101 95 -101 236v402q0 139 101 235t262 96q162 0 262 -96 t100 -235v-402z" glyph-name="ograve" horiz-adv-x="970" unicode="ò"/><glyph d="M420 1151h-182l260 303h233zM688 700q0 78 -59 136t-143 59q-84 0 -144 -58q-59 -58 -59 -137v-376q0 -78 60 -136t144 -59q84 0 143 58q58 58 58 137v376zM848 311q0 -141 -100 -236t-262 -95t-262 95q-101 95 -101 236v402q0 139 101 235t262 96q162 0 262 -96 t100 -235v-402z" glyph-name="oacute" horiz-adv-x="970" unicode="ó"/><glyph d="M336 1153h-148l218 301h155l221 -301h-149l-152 154zM688 700q0 78 -59 136t-143 59q-84 0 -144 -58q-59 -58 -59 -137v-376q0 -78 60 -136t144 -59q84 0 143 58q58 58 58 137v376zM848 311q0 -141 -100 -236t-262 -95t-262 95q-101 95 -101 236v402q0 139 101 235 t262 96q162 0 262 -96t100 -235v-402z" glyph-name="ocircumflex" horiz-adv-x="970" unicode="ô"/><glyph d="M166 1180q0 84 60 156t126 71q66 0 148 -45t105 -45t37 25q13 26 13 53h148q1 -84 -59 -156t-124 -72t-147 45t-107 45q-48 0 -57 -77h-143zM688 700q0 78 -59 136t-143 59q-84 0 -144 -58q-59 -58 -59 -137v-376q0 -78 60 -136t144 -59q84 0 143 58q58 58 58 137v376z M848 311q0 -141 -100 -236t-262 -95t-262 95q-101 95 -101 236v402q0 139 101 235t262 96q162 0 262 -96t100 -235v-402z" glyph-name="otilde" horiz-adv-x="970" unicode="õ"/><glyph d="M588 1251v183h182v-183h-182zM242 1251v183h182v-183h-182zM688 700q0 78 -59 136t-143 59q-84 0 -144 -58q-59 -58 -59 -137v-376q0 -78 60 -136t144 -59q84 0 143 58q58 58 58 137v376zM848 311q0 -141 -100 -236t-262 -95t-262 95q-101 95 -101 236v402q0 139 101 235 t262 96q162 0 262 -96t100 -235v-402z" glyph-name="odieresis" horiz-adv-x="970" unicode="ö"/><glyph d="M498 829v203h207v-203h-207zM498 176v203h207v-203h-207zM133 684h932v-164h-932v164z" glyph-name="divide" horiz-adv-x="1198" unicode="÷"/><glyph d="M470 895q-69 0 -128 -58t-59 -137v-376l2 -31l305 573q-51 29 -120 29zM688 324v376l-4 29l-303 -571q47 -29 119 -29t130 58q58 59 58 137zM848 713v-402q0 -141 -100 -236t-261 -95q-102 0 -178 38l-12 -18h-168l59 111q-66 84 -65 200v402q0 139 101 235t263 96 q96 0 175 -38l10 18h170l-62 -113q68 -87 68 -198z" glyph-name="oslash" horiz-adv-x="970" unicode="ø"/><glyph d="M688 1151h-182l-311 303h233zM133 1024h160v-690q0 -84 56 -146t138 -61q82 0 148 57t65 135v705h160v-1024h-160v61q-92 -81 -231 -81t-238 98q-98 98 -98 239v707z" glyph-name="ugrave" horiz-adv-x="993" unicode="ù"/><glyph d="M485 1151h-182l260 303h234zM133 1024h160v-690q0 -84 56 -146t138 -61q82 0 148 57t65 135v705h160v-1024h-160v61q-92 -81 -231 -81t-238 98q-98 98 -98 239v707z" glyph-name="uacute" horiz-adv-x="993" unicode="ú"/><glyph d="M346 1153h-147l217 301h155l222 -301h-150l-151 154zM133 1024h160v-690q0 -84 56 -146t138 -61q82 0 148 57t65 135v705h160v-1024h-160v61q-92 -81 -231 -81t-238 98q-98 98 -98 239v707z" glyph-name="ucircumflex" horiz-adv-x="993" unicode="û"/><glyph d="M598 1251v183h182v-183h-182zM252 1251v183h182v-183h-182zM133 1024h160v-690q0 -84 56 -146t138 -61q82 0 148 57t65 135v705h160v-1024h-160v61q-92 -81 -231 -81t-238 98q-98 98 -98 239v707z" glyph-name="udieresis" horiz-adv-x="993" unicode="ü"/><glyph d="M465 1151h-182l260 303h233zM213 1024l270 -782l267 782h172l-506 -1393h-162l141 402l-354 991h172z" glyph-name="yacute" horiz-adv-x="962" unicode="ý"/><glyph d="M700 324v376q0 78 -59 136t-142 59q-83 0 -145 -55t-61 -131v-385q0 -78 60 -136q61 -58 145 -59q84 1 143 59t59 136zM133 -369v1803h160v-455q86 66 207 65q158 0 259 -96t101 -235v-402q0 -141 -100 -236t-242 -95t-225 67v-416h-160z" glyph-name="thorn" horiz-adv-x="983" unicode="þ"/><glyph d="M584 1251v183h182v-183h-182zM238 1251v183h182v-183h-182zM213 1024l270 -782l267 782h172l-506 -1393h-162l141 402l-354 991h172z" glyph-name="ydieresis" horiz-adv-x="962" unicode="ÿ"/><glyph d="M328 162h463v-162h-637v520l-123 -67v192l123 68v721h174v-623l303 170l-4 -195l-299 -170v-454z" glyph-name="Lslash" horiz-adv-x="841" unicode="Ł"/><glyph d="M311 0h-159v623l-121 -66v178l121 66v633h159v-543l146 82v-176l-146 -86v-711z" glyph-name="lslash" horiz-adv-x="487" unicode="ł"/><glyph d="M297 381q0 -93 63 -155t158 -62h105v1102h-105q-94 0 -158 -62t-63 -153v-670zM512 1434h713v-164h-426v-432h377v-162h-377v-512h442v-164h-729q-162 0 -276 113t-113 270v670q-1 157 113 269t276 112z" glyph-name="OE" horiz-adv-x="1333" unicode="Œ"/><glyph d="M784 709v-109h349v100q1 78 -49 136t-124 59q-74 0 -124 -55q-52 -55 -52 -131zM625 324v385q-1 76 -51 131t-124 55t-124 -57q-49 -57 -50 -138v-376q0 -80 50 -138t125 -57q74 1 124 59t50 136zM1133 334h157q0 -162 -90 -258t-244 -96t-251 114q-99 -114 -249 -114 t-242 95q-91 95 -91 236v402q0 139 91 235t242 96t249 -118q99 118 251 118t243 -96t91 -235v-262h-506v-127q0 -78 50 -136t127 -59q76 -1 124 57t48 148z" glyph-name="oe" horiz-adv-x="1413" unicode="œ"/><glyph d="M221 1864h148l145 -154l152 154h149l-221 -301h-156zM739 1073q0 86 -62 151q-61 64 -153 64t-154 -57t-62 -140t62 -143q64 -60 155 -107t183 -101t154 -151q64 -97 64 -243t-114 -256t-273 -110h-37q-162 0 -276 110t-113 266v56h174v-56q0 -90 63 -152t158 -63h22 q92 1 156 59t64 151t-64 166t-154 119q-92 46 -182 96t-153 137t-64 210q0 160 114 268q113 107 275 107t275 -111t112 -270h-170z" glyph-name="Scaron" horiz-adv-x="1038" unicode="Š"/><glyph d="M145 1454h148l145 -154l152 154h149l-221 -301h-156zM778 731h-166q0 66 -49 116t-111 50t-108 -36t-45 -90q0 -54 50 -93t121 -66q70 -26 142 -60t122 -105t50 -183t-99 -198t-228 -86h-21q-143 0 -238 96t-96 223v25h160v-19q0 -72 53 -125t127 -53h13q69 0 117 44 q48 43 48 105t-50 103t-122 69t-142 60q-71 33 -121 96t-50 156q0 127 93 206q93 78 236 78q142 0 228 -100t86 -213z" glyph-name="scaron" horiz-adv-x="886" unicode="š"/><glyph d="M616 1661v182h183v-182h-183zM270 1661v182h183v-182h-183zM602 0h-178v678l-373 756h191l272 -539l270 539h193l-375 -756v-678z" glyph-name="Ydieresis" horiz-adv-x="1028" unicode="Ÿ"/><glyph d="M211 1864h147l146 -154l151 154h150l-221 -301h-156zM903 162v-162h-790v172l587 1100h-557v162h762v-172l-590 -1100h588z" glyph-name="Zcaron" horiz-adv-x="1017" unicode="Ž"/><glyph d="M129 1454h147l146 -154l151 154h150l-221 -301h-156zM762 147v-147h-670v154l477 723h-448v147h633v-158l-475 -719h483z" glyph-name="zcaron" horiz-adv-x="854" unicode="ž"/><glyph d="M109 879v145h231v147q0 119 83 201t187 82t199 -63l-92 -121q-51 35 -97 35t-83 -37t-37 -90v-154h260v-145h-260v-985q0 -119 -83 -201t-187 -82t-199 63l92 123q47 -37 95 -37t85 37t37 90v992h-231z" glyph-name="florin" horiz-adv-x="880" unicode="ƒ"/><glyph d="M150 1153h-148l217 301h156l221 -301h-150l-151 154z" glyph-name="circumflex" horiz-adv-x="598" unicode="ˆ"/><glyph d="M2 1454h148l145 -154l151 154h150l-221 -301h-156z" glyph-name="caron" horiz-adv-x="598" unicode="ˇ"/><glyph d="M10 1434h154q0 -45 28 -79t62 -34h65q37 0 63 34t26 79h153q0 -109 -73 -185t-171 -75h-63q-100 0 -172 76t-72 184z" glyph-name="breve" horiz-adv-x="571" unicode="˘"/><glyph d="M10 1251v183h183v-183h-183z" glyph-name="dotaccent" horiz-adv-x="202" unicode="˙"/><glyph d="M111 1293q0 -26 16 -43t43 -17t44 17t17 43t-17 43q-17 18 -44 18t-43 -18t-16 -43zM334 1291q0 -69 -48 -115t-116 -48q-68 0 -114 47t-46 116t46 116t114 47t116 -47t48 -116z" glyph-name="ring" horiz-adv-x="344" unicode="˚"/><glyph d="M393 -219v-150h-129q-88 1 -140 55t-52 136q0 45 25 91q26 46 50 69l25 22h184q-127 -113 -127 -182q1 -16 13 -28t28 -13h123z" glyph-name="ogonek" horiz-adv-x="464" unicode="˛"/><glyph d="M209 1257q-45 0 -55 -77h-144q0 84 60 156t126 71q66 0 148 -45t106 -45q24 -1 36 25q13 26 14 53h147q0 -84 -59 -156q-60 -72 -124 -72t-146 45t-109 45z" glyph-name="tilde" horiz-adv-x="657" unicode="˜"/><glyph d="M557 1151h-182l260 303h233zM182 1151h-182l260 303h234z" glyph-name="hungarumlaut" horiz-adv-x="868" unicode="˝"/><glyph d="M788 680v-160h-778v160h778z" glyph-name="endash" horiz-adv-x="798" unicode="–"/><glyph d="M1462 680v-160h-1452v160h1452z" glyph-name="emdash" horiz-adv-x="1472" unicode="—"/><glyph d="M385 1434l-74 -439h-188l147 439h115z" glyph-name="quoteleft" horiz-adv-x="569" unicode="‘"/><glyph d="M184 995l74 439h188l-147 -439h-115z" glyph-name="quoteright" horiz-adv-x="569" unicode="’"/><glyph d="M184 -238l74 439h188l-147 -439h-115z" glyph-name="quotesinglbase" horiz-adv-x="569" unicode="‚"/><glyph d="M385 1436l-74 -439h-188l147 439h115zM696 1436l-73 -439h-189l148 439h114z" glyph-name="quotedblleft" horiz-adv-x="880" unicode="“"/><glyph d="M496 997l73 439h189l-148 -439h-114zM184 997l74 439h188l-147 -439h-115z" glyph-name="quotedblright" horiz-adv-x="880" unicode="”"/><glyph d="M496 -238l73 439h189l-148 -439h-114zM184 -238l74 439h188l-147 -439h-115z" glyph-name="quotedblbase" horiz-adv-x="880" unicode="„"/><glyph d="M776 1024v-158h-239v-1235h-170v1235h-234v158h234v410h170v-410h239z" glyph-name="dagger" horiz-adv-x="909" unicode="†"/><glyph d="M776 160v-160h-239v-369h-170v369h-234v160h234v706h-234v158h234v410h170v-410h239v-158h-239v-706h239z" glyph-name="daggerdbl" horiz-adv-x="909" unicode="‡"/><glyph d="M154 734q0 128 90 219t218 91t219 -91t91 -219t-91 -218t-219 -90t-218 90t-90 218z" glyph-name="bullet" horiz-adv-x="925" unicode="•"/><glyph d="M961 0v201h200v-201h-200zM547 0v201h201v-201h-201zM133 0v201h201v-201h-201z" glyph-name="ellipsis" horiz-adv-x="1294" unicode="…"/><glyph d="M2347 279v282q0 66 -43 112t-103 46q-61 0 -103 -46t-42 -112v-280q0 -66 42 -112t104 -46t103 45q42 45 42 111zM2509 555v-270q0 -127 -88 -217t-211 -91h-17q-121 -1 -209 91t-88 217v270q0 129 87 218t210 89h17q123 0 211 -89t88 -218zM485 0l727 1432h174 l-727 -1432h-174zM1577 279v282q0 66 -43 112t-104 46q-62 0 -104 -46t-42 -112v-280q0 -66 42 -112t104 -46q62 1 104 47q43 46 43 109zM1739 555v-270q0 -127 -89 -217t-212 -91h-15q-121 -1 -210 91t-89 217v270q0 129 88 218t211 89h15q125 0 213 -89t88 -218zM584 866 v285q0 63 -43 109t-105 47q-62 0 -102 -46q-41 -46 -41 -110v-283q0 -66 42 -110t103 -45q61 0 104 45q42 45 42 108zM745 1145v-271q0 -129 -88 -218t-211 -89h-16q-121 0 -209 90t-88 217v271q0 129 87 218t210 89h16q123 0 211 -89t88 -218z" glyph-name="perthousand" horiz-adv-x="2641" unicode="‰"/><glyph d="M575 272h-192l-250 324l250 326h190l-251 -326z" glyph-name="guilsinglleft" horiz-adv-x="708" unicode="‹"/><glyph d="M326 272h-191l252 324l-254 326h193l249 -326z" glyph-name="guilsinglright" horiz-adv-x="708" unicode="›"/><glyph d="M-195 0l727 1432h175l-727 -1432h-175z" glyph-name="fraction" horiz-adv-x="512" unicode="⁄"/><glyph d="M817 932v-162h-457v-117h394v-161h-394v-136q0 -90 64 -153t154 -63t153 62t64 152v25h172v-23q0 -158 -112 -268t-271 -108h-13q-159 0 -271 110t-112 268v134h-96v161h96v117h-96v162h96v145q0 158 112 268t271 109h13q162 0 272 -108t111 -271h-172q1 91 -63 153 t-154 62t-154 -62t-64 -153v-143h457z" glyph-name="Euro" horiz-adv-x="1099" unicode="€"/><glyph d="M1278 1434v-844h-141v506l14 82l-117 -244h-112l-121 244l14 -84v-504h-137v844h137l162 -342l162 342h139zM92 1307v127h490v-127h-179v-717h-139v717h-172z" glyph-name="trademark" horiz-adv-x="1452" unicode="™"/><glyph d="M1040 678v-164h-907v164h907z" glyph-name="minus" horiz-adv-x="1173" unicode="−"/><glyph d="M729 1247v185h189v-185h-189zM741 0v877h-397v-877h-160v877h-143v147h143v145q0 119 83 201t189 82t199 -63l-94 -123q-102 73 -180 -1q-37 -36 -37 -89v-152h559v-1024h-162z" glyph-name="uniFB01" horiz-adv-x="1058" unicode="ﬁ"/><glyph d="M756 0v1280h-285q-53 0 -90 -36t-37 -87v-133h260v-147h-260v-877h-160v877h-143v147h143v127q0 119 83 200t204 81h447v-1432h-162z" glyph-name="uniFB02" horiz-adv-x="1081" unicode="ﬂ"/></font>
</defs>
</svg>
