<?xml version="1.0" encoding="utf-8"?>
<!-- Generator: Adobe Illustrator 16.0.0, SVG Export Plug-In . SVG Version: 6.00 Build 0)  -->
<!DOCTYPE svg PUBLIC "-//W3C//DTD SVG 1.1//EN" "http://www.w3.org/Graphics/SVG/1.1/DTD/svg11.dtd">
<svg version="1.1" id="Layer_1" xmlns="http://www.w3.org/2000/svg" xmlns:xlink="http://www.w3.org/1999/xlink" x="0px" y="0px"
	 width="779.993px" height="170.239px" viewBox="0 0 779.993 170.239" enable-background="new 0 0 779.993 170.239"
	 xml:space="preserve">
<g opacity="0.5">
	<g>
		<path fill="#EC2227" d="M0,39.983h33.375l2.556,7.995c5.111-6.982,14.822-10.897,26.056-10.897
			c13.462,0,22.153,4.262,26.742,12.102c5.796-7.167,15.846-12.102,28.102-12.102c24.195,0,32.191,13.125,32.191,40.041v58.923
			h-39.684V77.227c0-5.188-2.383-7.773-7.146-7.773c-3.75,0-7.84,2.479-7.84,7.773v58.817H54.667V77.227
			c0-4.311-2.381-7.773-7.15-7.773c-5.326,0-7.845,2.643-7.845,7.773v58.817H0V39.983z"/>
		<path fill="#EC2227" d="M154.804,88.026c0-36.799,23.843-50.946,53.819-50.946c30.145,0,51.435,14.146,51.435,50.946
			c0,36.956-24.187,50.921-53.994,50.921C175.927,138.947,154.804,124.982,154.804,88.026z M220.587,88.026
			c0-12.988-3.664-19.914-13.162-19.914c-9.5,0-12.972,6.925-12.972,19.914c0,13.136,3.472,19.906,12.972,19.906
			C216.923,107.933,220.587,101.162,220.587,88.026z"/>
		<path fill="#EC2227" d="M312.134,87.467c0-36.769,23.857-50.928,53.832-50.928c30.134,0,51.429,14.159,51.429,50.928
			c0,36.975-24.184,50.938-53.985,50.938C333.262,138.405,312.134,124.441,312.134,87.467z M377.919,87.467
			c0-12.951-3.656-19.904-13.16-19.904c-9.495,0-12.969,6.953-12.969,19.904c0,13.154,3.474,19.915,12.969,19.915
			C374.263,107.382,377.919,100.621,377.919,87.467z"/>
		<path fill="#EC2227" d="M249.838,165.976v-28.1c2.716,1.88,6.12,2.893,9.528,2.893c4.427,0,6.979-1.861,6.979-6.811V39.983h39.688
			v93.813c0,24.35-13.283,36.443-37.469,36.443C260.048,170.239,252.383,167.685,249.838,165.976z M266.187,16.742
			C266.187,6.578,274.625,0,285.921,0c11.487,0,20.113,6.578,20.113,16.742c0,10.358-8.626,16.607-20.113,16.607
			C274.625,33.349,266.187,27.1,266.187,16.742z"/>
		<path fill="#EC2227" d="M430.181,104.2V70.138h-10.554V52.076l32.069-33.897h18.169v21.804h20.103v30.155h-20.103V99.09
			c0,5.447,2.218,8.166,6.981,8.166c5.796,0,9.372-2.209,12.097-5.438v29.8c-4.087,3.74-11.074,7.33-25.714,7.33
			C439.034,138.947,430.181,124.636,430.181,104.2z"/>
		<path fill="#EC2227" d="M492.34,88.026c0-36.288,24.018-50.946,50.422-50.946c25.893,0,47.687,9.942,47.687,48.035
			c0,3.076-0.917,11.139-1.255,12.267c-12.94,0-55.972,0-55.972,0c0.847,5.447,5.103,9.373,22.816,9.373
			c14.314,0,20.056-1.426,26.02-4.341v29.472c-5.457,3.751-14.775,7.062-34.702,7.062C510.055,138.947,492.34,122.416,492.34,88.026
			z M557.645,76.271v-0.684c0-5.788-4.521-12.151-13.195-12.151c-9.02,0-12.759,7.029-12.934,12.835H557.645z"/>
		<path fill="#EC2227" d="M594.176,88.026c0-35.449,21.794-50.946,49.91-50.946c16.005,0,26.222,4.098,30.82,7.501v32.363
			c-6.809-4.425-13.115-6.306-21.967-6.306c-12.606,0-18.061,5.631-18.061,17.542c0,11.765,5.621,17.195,18.061,17.195
			c8.852,0,15.333-2.208,22.143-6.472v31.863c-4.603,3.75-15.498,8.179-30.493,8.179
			C614.444,138.947,594.176,123.777,594.176,88.026z"/>
		<path fill="#EC2227" d="M682.565,5.583h39.687v39.51c5.107-4.936,13.115-8.012,24.188-8.012c24.354,0,33.554,13.125,33.554,40.041
			v58.923h-39.687V77.565c0-3.5-3.072-8.111-9.024-8.111c-4.267,0-9.03,2.961-9.03,8.111v58.479h-39.687V5.583z"/>
	</g>
</g>
<circle fill="none" stroke="#6ABD45" stroke-miterlimit="10" cx="730.862" cy="78.46" r="17.394"/>
<circle fill="none" stroke="#6ABD45" stroke-miterlimit="10" cx="586.37" cy="102.07" r="17.394"/>
<circle fill="none" stroke="#6ABD45" stroke-miterlimit="10" cx="580.703" cy="119.069" r="17.394"/>
<circle fill="none" stroke="#6ABD45" stroke-miterlimit="10" cx="545.76" cy="70.905" r="17.394"/>
<circle fill="none" stroke="#6ABD45" stroke-miterlimit="10" cx="460.765" cy="22.741" r="17.394"/>
<circle fill="none" stroke="#6ABD45" stroke-miterlimit="10" cx="364.437" cy="67.127" r="17.394"/>
<circle fill="none" stroke="#6ABD45" stroke-miterlimit="10" cx="364.437" cy="104.903" r="17.394"/>
<circle fill="none" stroke="#6ABD45" stroke-miterlimit="10" cx="302.107" cy="18.019" r="17.394"/>
<circle fill="none" stroke="#6ABD45" stroke-miterlimit="10" cx="101.895" cy="78.46" r="17.394"/>
<circle fill="none" stroke="#6ABD45" stroke-miterlimit="10" cx="47.12" cy="78.46" r="17.394"/>
<circle fill="none" stroke="#6ABD45" stroke-miterlimit="10" cx="209.556" cy="67.127" r="17.394"/>
<circle fill="none" stroke="#6ABD45" stroke-miterlimit="10" cx="209.556" cy="104.903" r="17.394"/>
</svg>
