<?xml version="1.0" standalone="no"?>
<!DOCTYPE svg PUBLIC "-//W3C//DTD SVG 1.1//EN" "http://www.w3.org/Graphics/SVG/1.1/DTD/svg11.dtd" >
<svg xmlns="http://www.w3.org/2000/svg">
<metadata></metadata>
<defs>
<font id="altisbook" horiz-adv-x="1044" >
<font-face units-per-em="2048" ascent="1602" descent="-446" />
<missing-glyph horiz-adv-x="491" />
<glyph unicode="&#xfb01;" horiz-adv-x="1103" d="M51 985v41l135 61q-41 88 -41 166q0 128 89.5 204.5t220.5 76.5q137 0 202 -70v-147q-24 41 -70 68.5t-110 27.5q-82 0 -131 -47.5t-49 -128.5q0 -67 39 -135h614v-1102h-151v985h-457v-985h-154v985h-137zM784 1364q0 84 88 84q45 0 69 -21.5t24 -62.5q0 -40 -24.5 -61 t-68.5 -21q-88 0 -88 82z" />
<glyph unicode="&#xfb02;" horiz-adv-x="1212" d="M51 979v47l135 61q-41 88 -41 166q0 128 89.5 204.5t220.5 76.5q137 0 202 -70v-147q-24 41 -70 68.5t-110 27.5q-82 0 -131 -47.5t-49 -128.5q0 -67 39 -135h221v-123h-215v-979h-154v979h-137zM795 217v1286h153v-1272q0 -137 115 -137q77 0 123 68v-127 q-47 -68 -162 -68q-114 0 -171.5 65t-57.5 185z" />
<glyph unicode="&#xfb03;" horiz-adv-x="1712" d="M51 985v41l135 61q-41 88 -41 166q0 128 89.5 204.5t220.5 76.5q137 0 202 -70v-147q-24 41 -70 68.5t-110 27.5q-82 0 -131 -47.5t-49 -128.5q0 -67 39 -135h455q-37 72 -37 151q0 128 89.5 204.5t219.5 76.5q140 0 205 -70v-147q-26 41 -72 68.5t-109 27.5 q-84 0 -133 -47.5t-49 -128.5q0 -67 39 -135h617v-1102h-154v985h-457v-985h-151v985h-457v-985h-154v985h-137zM1393 1364q0 84 90 84q43 0 67.5 -21.5t24.5 -62.5q0 -39 -24.5 -60.5t-67.5 -21.5q-90 0 -90 82z" />
<glyph unicode="&#xfb04;" horiz-adv-x="1820" d="M51 985v41l135 61q-41 88 -41 166q0 128 89.5 204.5t220.5 76.5q137 0 202 -70v-147q-24 41 -70 68.5t-110 27.5q-82 0 -131 -47.5t-49 -128.5q0 -67 39 -135h455q-37 72 -37 151q0 128 89.5 204.5t219.5 76.5q140 0 205 -70v-147q-61 96 -181 96q-86 0 -134 -47 t-48 -129q0 -67 39 -135h221v-117h-215v-985h-151v985h-457v-985h-154v985h-137zM1405 217v1286h151v-1272q0 -137 115 -137q81 0 123 68v-127q-47 -68 -162 -68q-114 0 -170.5 64.5t-56.5 185.5z" />
<glyph horiz-adv-x="2048" />
<glyph horiz-adv-x="2048" />
<glyph unicode="&#xd;" horiz-adv-x="2048" />
<glyph unicode=" "  horiz-adv-x="491" />
<glyph unicode="&#x09;" horiz-adv-x="491" />
<glyph unicode="&#xa0;" horiz-adv-x="491" />
<glyph unicode="!" horiz-adv-x="489" d="M145 72q0 46 28 75t73 29q44 0 72 -29t28 -75q0 -45 -28 -74t-72 -29q-45 0 -73 29t-28 74zM160 1358h170l-17 -985h-135z" />
<glyph unicode="&#x22;" horiz-adv-x="643" d="M115 1348v28q0 35 22 58.5t58 23.5q35 0 57 -24t22 -58v-28l-47 -312h-65zM369 1348v28q0 34 23 58t59 24q33 0 55 -24t22 -58v-28l-45 -312h-65z" />
<glyph unicode="#" horiz-adv-x="1363" d="M76 432l12 76h313l66 377h-311l10 78h313l74 421h88l-74 -421h322l74 421h88l-74 -421h311l-14 -78h-309l-66 -377h311l-14 -76h-311l-74 -432h-88l74 432h-322l-74 -432h-88l74 432h-311zM489 508h322l66 377h-322z" />
<glyph unicode="$" horiz-adv-x="1050" d="M98 186v152q40 -57 145.5 -98t233.5 -41q320 0 320 200q0 46 -17.5 79.5t-52 54.5t-67 32.5t-82.5 22.5l-187 41q-130 28 -205 97.5t-75 203.5q0 120 77 196t218 103v170h73v-160q54 4 86 4q31 0 45 -2v158h72v-164q91 -12 157 -42.5t97 -62.5v-151q-39 56 -141 96.5 t-232 40.5q-303 0 -303 -174q0 -85 52.5 -124t150.5 -60l180 -39q71 -16 122 -36.5t96 -55t68 -88.5t23 -127q0 -118 -69.5 -199.5t-200.5 -116.5v-188h-72v174q-55 -8 -131 -8v-166h-73v168q-112 10 -194.5 42t-113.5 68z" />
<glyph unicode="%" horiz-adv-x="1437" d="M74 1071q0 99 23 172t64 114t92 60t114 19q88 0 159 -41q67 -39 126.5 -54.5t148.5 -15.5q178 0 274 111l78 -41l-770 -1395h-100l706 1290q-76 -49 -188 -49q-100 0 -174 27q32 -82 32 -197q0 -99 -22.5 -171t-64 -112t-92 -58.5t-113.5 -18.5t-114 18.5t-92 58.5 t-64 112t-23 171zM188 1071q0 -262 179 -262q180 0 180 262q0 266 -180 266q-179 0 -179 -266zM778 330q0 99 23 171.5t64 113t92 59t114 18.5t114 -18.5t92 -59t64 -113t23 -171.5q0 -100 -23 -172.5t-64 -113t-92 -59t-114 -18.5t-114 18.5t-92 59t-64 113t-23 172.5z M893 330q0 -264 178 -264q180 0 180 264t-180 264q-178 0 -178 -264z" />
<glyph unicode="&#x26;" horiz-adv-x="1501" d="M78 406q0 75 26.5 139.5t72 110t96.5 76.5t108 50q-166 107 -166 279q0 149 115 238.5t307 89.5q111 0 188 -32.5t107 -70.5v-170q-36 53 -114.5 95t-176.5 42q-130 0 -199 -53t-69 -141q0 -69 35.5 -123t113.5 -109l101 -84v-36h-152q-43 -15 -81 -38t-74.5 -57t-58 -83 t-21.5 -107q0 -153 111.5 -235.5t324.5 -82.5q111 0 202 25t160 75.5t107.5 132.5t38.5 189q0 104 -39 183h-166v135h485v-135h-168q37 -75 37 -174q0 -137 -51.5 -246.5t-142.5 -179t-211.5 -106t-261.5 -36.5q-279 0 -431.5 113t-152.5 326z" />
<glyph unicode="'" horiz-adv-x="389" d="M115 1348v28q0 35 22 58.5t58 23.5q35 0 57 -24t22 -58v-28l-47 -312h-65z" />
<glyph unicode="(" horiz-adv-x="645" d="M86 608q0 250 110 478t291 329h146q-187 -99 -298.5 -320.5t-111.5 -486.5q0 -277 114 -510.5t294 -335.5h-144q-120 68 -212 203t-140.5 302.5t-48.5 340.5z" />
<glyph unicode=")" horiz-adv-x="643" d="M14 -240q185 101 296.5 322.5t111.5 486.5q0 277 -114 510t-294 334h144q120 -67 212 -201.5t140.5 -302t48.5 -340.5q0 -163 -48.5 -322t-140.5 -289t-212 -198h-144z" />
<glyph unicode="*" horiz-adv-x="874" d="M109 1030l247 146l-247 139l59 88l225 -148l-10 269h109l-7 -267l224 146l59 -82l-250 -147l248 -144l-57 -86l-224 146l7 -263h-109l8 263l-223 -148z" />
<glyph unicode="+" horiz-adv-x="1110" d="M84 641v135h401v404h136v-404h403v-135h-403v-408h-136v408h-401z" />
<glyph unicode="," horiz-adv-x="393" d="M66 -297q33 57 60.5 132t31.5 145q-64 22 -64 92q0 49 28.5 76.5t76.5 27.5q45 0 71.5 -30t26.5 -85q0 -106 -50.5 -208.5t-107.5 -163.5z" />
<glyph unicode="-" horiz-adv-x="770" d="M127 549v131h516v-131h-516z" />
<glyph unicode="." horiz-adv-x="391" d="M94 72q0 46 28.5 75t72.5 29t73 -29t29 -75q0 -44 -29 -73.5t-73 -29.5t-72.5 29.5t-28.5 73.5z" />
<glyph unicode="/" horiz-adv-x="1193" d="M47 -162l985 1729h119l-985 -1729h-119z" />
<glyph unicode="0" horiz-adv-x="1464" d="M98 680q0 166 51.5 302.5t139 224t201.5 135t241 47.5q298 0 466.5 -185t168.5 -524q0 -166 -51 -302.5t-138.5 -225.5t-202 -137t-243.5 -48q-294 0 -463.5 187.5t-169.5 525.5zM258 680q0 -277 127.5 -428.5t345.5 -151.5q208 0 341.5 153.5t133.5 426.5 q0 279 -127 428t-348 149q-100 0 -185.5 -37.5t-150 -108.5t-101 -181.5t-36.5 -249.5z" />
<glyph unicode="1" horiz-adv-x="706" d="M43 1061v129q140 0 241.5 43.5t176.5 136.5h74v-1370h-148v1176q-103 -115 -344 -115z" />
<glyph unicode="2" horiz-adv-x="1009" d="M78 1063v154q49 73 150 122.5t237 49.5q209 0 313.5 -107t104.5 -297q0 -79 -25 -159t-74 -159t-89 -132.5t-103 -128.5l-227 -265h550v-141h-804v18l399 500q50 60 81.5 103.5t69 105t56 122.5t18.5 122q0 135 -73 208.5t-220 73.5q-114 0 -211.5 -54.5t-152.5 -135.5z " />
<glyph unicode="3" horiz-adv-x="1036" d="M102 51v156q45 -47 121 -79t180 -32q188 0 283.5 77t95.5 212q0 134 -94 203t-309 69h-53v17l374 549h-596v135h807v-19l-389 -571q209 -15 314.5 -106.5t105.5 -270.5q0 -85 -33 -160.5t-95.5 -135t-164.5 -94t-231 -34.5q-191 0 -316 84z" />
<glyph unicode="4" horiz-adv-x="1110" d="M39 313v21l393 1024h146l-338 -903h503v551h146v-551h168v-142h-168v-313h-146v313h-704z" />
<glyph unicode="5" horiz-adv-x="1036" d="M102 51v156q48 -44 129 -77.5t189 -33.5q181 0 271.5 80.5t90.5 214.5q0 129 -82.5 193.5t-261.5 64.5q-87 0 -164.5 -20t-119.5 -51l26 780h721v-135h-590l-12 -488q24 17 81.5 30t115.5 13q219 0 332.5 -94t113.5 -281q0 -196 -135.5 -316t-372.5 -120q-210 0 -332 84z " />
<glyph unicode="6" horiz-adv-x="1103" d="M94 494q0 143 36 272.5t94 224t134 171t152 123.5t152 73h221v-8q-98 -32 -186 -81.5t-168.5 -119.5t-141.5 -166.5t-92 -210.5q118 125 303 125q210 0 322 -121t112 -334q0 -209 -130 -342t-345 -133q-220 0 -341.5 145t-121.5 382zM248 479q0 -173 81 -275t234 -102 q148 0 231 91t83 245q0 156 -79 244t-231 88q-208 0 -311 -152q-8 -60 -8 -139z" />
<glyph unicode="7" horiz-adv-x="882" d="M37 1223v135h831v-19l-469 -1339h-151l430 1223h-641z" />
<glyph unicode="8" horiz-adv-x="1153" d="M106 354q0 132 74 220.5t207 121.5q-115 32 -181.5 115t-66.5 211q0 172 121 269.5t328 97.5q205 0 316.5 -96.5t111.5 -270.5q0 -126 -67 -207t-183 -115q134 -26 207.5 -117.5t73.5 -228.5q0 -173 -126 -280t-356 -107q-227 0 -343 106t-116 281zM258 369 q0 -123 78.5 -195t236.5 -72q160 0 242 72.5t82 194.5t-78.5 192t-238.5 70q-159 0 -240.5 -70.5t-81.5 -191.5zM285 1008q0 -118 74.5 -183t211.5 -65q141 0 219 65t78 183q0 119 -75.5 183t-214.5 64q-137 0 -215 -64.5t-78 -182.5z" />
<glyph unicode="9" horiz-adv-x="1103" d="M74 913q0 210 129 343t344 133q220 0 341.5 -144t121.5 -381q0 -144 -36 -274t-93 -225t-131.5 -171.5t-148.5 -123t-146 -70.5h-234v8q99 32 187 81t168.5 118.5t141 165.5t91.5 209q-117 -121 -301 -121q-211 0 -322.5 120.5t-111.5 331.5zM227 920q0 -156 79.5 -245 t232.5 -89q203 0 309 151q8 90 8 142q0 173 -81 274.5t-234 101.5q-146 0 -230 -91.5t-84 -243.5z" />
<glyph unicode=":" horiz-adv-x="477" d="M137 72q0 46 28.5 75t72.5 29t73 -29t29 -75q0 -44 -29 -73.5t-73 -29.5t-72.5 29.5t-28.5 73.5zM137 877q0 46 28.5 75t72.5 29t73 -29t29 -75q0 -44 -29 -73.5t-73 -29.5t-72.5 29.5t-28.5 73.5z" />
<glyph unicode=";" horiz-adv-x="507" d="M127 -297q33 57 60.5 132t31.5 145q-63 22 -63 92q0 49 28 76.5t76 27.5q45 0 71.5 -30t26.5 -85q0 -106 -50 -208.5t-107 -163.5zM147 877q0 46 28.5 75t72.5 29t73 -29t29 -75q0 -44 -29 -73.5t-73 -29.5t-72.5 29.5t-28.5 73.5z" />
<glyph unicode="&#x3c;" horiz-adv-x="1060" d="M63 670v10l861 534v-153l-633 -391l633 -391v-144z" />
<glyph unicode="=" horiz-adv-x="1155" d="M143 414v129h869v-129h-869zM143 846v129h869v-129h-869z" />
<glyph unicode="&#x3e;" horiz-adv-x="1060" d="M135 135v144l633 391l-633 391v153l862 -534v-10z" />
<glyph unicode="?" horiz-adv-x="905" d="M78 1065v168q42 68 144.5 112t226.5 44q180 0 277 -87t97 -239q0 -104 -45 -180.5t-135 -169.5q-70 -77 -104.5 -148t-34.5 -166v-39h-154v37q0 70 13.5 128.5t43 108.5t57.5 85t75 84q62 63 92.5 118t30.5 126q0 91 -59.5 148.5t-180.5 57.5q-109 0 -206 -52t-138 -136z M328 72q0 46 27.5 75t72.5 29q44 0 72 -29t28 -75q0 -45 -28 -74t-72 -29q-45 0 -72.5 29t-27.5 74z" />
<glyph unicode="@" horiz-adv-x="1832" d="M82 563q0 198 67.5 361t184.5 269.5t271.5 164t330.5 57.5t324.5 -51t258.5 -148.5t172 -248.5t62 -342q0 -124 -19 -225t-58.5 -178.5t-106 -120t-154.5 -42.5q-110 0 -174.5 52.5t-81.5 130.5q-27 -54 -99.5 -91.5t-172.5 -37.5q-150 0 -227.5 68t-77.5 194 q0 125 95.5 193t315.5 104l154 26q-3 134 -56 186t-186 52q-65 0 -122 -18t-94 -45.5t-60 -55.5t-31 -53v141q12 21 33.5 41t57.5 43.5t93.5 38t126.5 14.5q198 0 281.5 -85.5t83.5 -276.5v-350q0 -180 145 -180q115 0 173.5 121.5t58.5 355.5q0 172 -52.5 305.5t-148.5 219 t-226 129.5t-288 44q-156 0 -291.5 -50.5t-237.5 -145t-160.5 -240t-58.5 -324.5q0 -180 55.5 -325.5t153 -240t230 -144.5t288.5 -50q229 0 369 72v-102q-135 -64 -369 -64q-175 0 -326.5 57.5t-264.5 163.5t-177.5 268.5t-64.5 362.5zM711 385q0 -84 46.5 -129t153.5 -45 q83 0 144 31.5t92 76.5v289l-150 -28q-156 -28 -221 -72t-65 -123z" />
<glyph unicode="A" horiz-adv-x="1220" d="M20 0l512 1233l-47 125h162l549 -1358h-162l-133 332h-598l-133 -332h-150zM350 449h504l-219 550l-29 84l-31 -84z" />
<glyph unicode="B" horiz-adv-x="1191" d="M172 0v1358h387q263 0 381.5 -81.5t118.5 -248.5q0 -134 -73.5 -214.5t-215.5 -102.5v-6q157 -18 234 -95t77 -233q0 -175 -121 -276t-382 -101h-406zM328 129h254q185 0 265.5 66.5t80.5 193.5t-79 188.5t-267 61.5h-254v-510zM328 764h235q184 0 263 62.5t79 179.5 q0 118 -79.5 170.5t-262.5 52.5h-235v-465z" />
<glyph unicode="C" horiz-adv-x="1185" d="M100 678q0 175 47.5 312.5t131 223.5t192 130.5t234.5 44.5q256 0 382 -119v-178q-113 161 -360 161q-215 0 -342 -143.5t-127 -423.5q0 -290 123 -437t346 -147q244 0 360 158v-158q-126 -135 -376 -135q-286 0 -448.5 177t-162.5 534z" />
<glyph unicode="D" horiz-adv-x="1341" d="M172 0v1358h367q172 -1 298.5 -37.5t218 -116t137.5 -211t46 -315.5q0 -146 -35.5 -261.5t-97.5 -192.5t-151 -128t-192 -73.5t-224 -22.5h-367zM328 135h211q277 0 409.5 127t132.5 412q0 289 -127.5 419t-414.5 130h-211v-1088z" />
<glyph unicode="E" horiz-adv-x="1112" d="M172 0v1358h846v-135h-690v-461h450v-125h-450v-502h690v-135h-846z" />
<glyph unicode="F" horiz-adv-x="1050" d="M172 0v1358h817v-135h-661v-478h440v-120h-440v-625h-156z" />
<glyph unicode="G" horiz-adv-x="1277" d="M100 678q0 174 50 312t137 224t199 130.5t241 44.5q282 0 422 -140v-178q-131 182 -406 182q-107 0 -194.5 -35.5t-153 -104t-101.5 -177.5t-36 -250q0 -287 128 -439.5t345 -152.5q147 0 262 60v436h156v-510q-176 -113 -424 -113q-137 0 -249.5 42.5t-197.5 127.5 t-131.5 223t-46.5 318z" />
<glyph unicode="H" horiz-adv-x="1380" d="M172 0v1358h156v-594h725v594h155v-1358h-155v629h-725v-629h-156z" />
<glyph unicode="I" horiz-adv-x="499" d="M172 0v1358h156v-1358h-156z" />
<glyph unicode="J" horiz-adv-x="833" d="M51 68v176q41 -62 103 -101t135 -39q118 0 172.5 62.5t54.5 206.5v985h156v-998q0 -105 -28.5 -182.5t-80.5 -122.5t-117.5 -66.5t-146.5 -21.5q-159 0 -248 101z" />
<glyph unicode="K" horiz-adv-x="1214" d="M172 0v1358h156v-731l669 731h164l-483 -527l510 -831h-178l-430 723l-252 -272v-451h-156z" />
<glyph unicode="L" horiz-adv-x="970" d="M172 0v1358h156v-1223h592v-135h-748z" />
<glyph unicode="M" horiz-adv-x="1589" d="M172 0v1358h147l486 -752l467 752h145v-1358h-155v1110l-461 -733h-4l-469 733v-1110h-156z" />
<glyph unicode="N" horiz-adv-x="1366" d="M98 1358h183l770 -1075h2v1075h141v-1358h-115l-764 1063h-2v-1063h-141v1253z" />
<glyph unicode="O" horiz-adv-x="1454" d="M98 678q0 139 35 257t95 200.5t140.5 140.5t171 85.5t187.5 27.5q290 0 459.5 -181t169.5 -530q0 -140 -35 -257.5t-94.5 -200t-140 -140.5t-171.5 -85.5t-188 -27.5q-293 0 -461 178.5t-168 532.5zM258 686q0 -293 123 -438.5t346 -145.5q100 0 184.5 36t149 105.5 t101 180t36.5 250.5q0 287 -125 434t-346 147q-99 0 -184 -36t-149 -105.5t-100 -179t-36 -248.5z" />
<glyph unicode="P" horiz-adv-x="1144" d="M172 0v1358h367q286 0 415 -103.5t129 -314.5q0 -221 -132.5 -348t-411.5 -127h-129v121h129q387 0 387 336q0 162 -91 236.5t-298 74.5h-209v-1233h-156z" />
<glyph unicode="Q" horiz-adv-x="1460" d="M100 676q0 139 35 257t95 200.5t140.5 140t171 85t187.5 27.5q291 0 460 -180.5t169 -529.5q0 -148 -38.5 -271.5t-106.5 -208t-155 -138.5t-188 -76l269 -273h-191l-239 256q-284 6 -446.5 184.5t-162.5 526.5zM260 684q0 -293 123 -438.5t346 -145.5q100 0 184.5 36 t149 105.5t101 180t36.5 250.5q0 287 -125 434t-346 147q-99 0 -184 -36t-149 -105.5t-100 -179t-36 -248.5z" />
<glyph unicode="R" horiz-adv-x="1144" d="M172 0v1358h356q249 0 374.5 -93.5t125.5 -289.5q0 -186 -116 -299.5t-332 -126.5l536 -549h-190l-523 549h-75v-549h-156zM328 662h200q173 0 257.5 79t84.5 220q0 139 -82.5 205.5t-261.5 66.5h-198v-571z" />
<glyph unicode="S" d="M102 88v176q46 -70 139 -116t224 -46q152 0 237.5 71.5t85.5 197.5q0 56 -17.5 97t-53.5 68t-77.5 43.5t-102.5 30.5l-111 29q-311 75 -311 367q0 179 124.5 281t331.5 102q138 0 228 -35.5t127 -83.5v-176q-38 67 -133.5 113t-227.5 46q-137 0 -218 -59t-81 -170 q0 -109 56.5 -163.5t173.5 -82.5l110 -26q78 -20 134.5 -46.5t103 -68t70.5 -104.5t24 -146q0 -193 -125.5 -306.5t-351.5 -113.5q-138 0 -227 36.5t-132 84.5z" />
<glyph unicode="T" horiz-adv-x="1132" d="M47 1223v135h1038v-135h-440v-1223h-156v1223h-442z" />
<glyph unicode="U" horiz-adv-x="1404" d="M158 543v815h157v-817q0 -232 100.5 -335.5t289.5 -103.5q389 0 389 439v817h153v-815q0 -149 -41.5 -261.5t-117 -180t-174.5 -101t-220 -33.5q-536 0 -536 576z" />
<glyph unicode="V" horiz-adv-x="1185" d="M29 1358h161l404 -1118h4l412 1118h151l-506 -1358h-129z" />
<glyph unicode="W" horiz-adv-x="1781" d="M39 1358h162l307 -1127h6l303 959l-53 168h156l356 -1127h6l311 1127h154l-406 -1358h-133l-321 1010l-324 -1010h-129z" />
<glyph unicode="X" horiz-adv-x="1116" d="M33 0l442 705l-405 653h168l331 -531l318 531h157l-405 -641l442 -717h-168l-366 594l-354 -594h-160z" />
<glyph unicode="Y" horiz-adv-x="1116" d="M16 1358h174l375 -625l379 625h156l-465 -760v-598h-156v598z" />
<glyph unicode="Z" horiz-adv-x="1019" d="M72 0v39l665 1186h-657v133h854v-39l-660 -1186h672v-133h-874z" />
<glyph unicode="[" horiz-adv-x="651" d="M156 -242v1674h438v-113h-315v-1448h315v-113h-438z" />
<glyph unicode="\" horiz-adv-x="1193" d="M43 1567h119l983 -1729h-117z" />
<glyph unicode="]" horiz-adv-x="651" d="M57 -129h316v1448h-316v113h439v-1674h-439v113z" />
<glyph unicode="^" horiz-adv-x="1003" d="M76 952l422 629h8l420 -629h-148l-282 424l-283 -424h-137z" />
<glyph unicode="_" horiz-adv-x="1687" d="M283 -172h1122v-123h-1122v123z" />
<glyph unicode="`" d="M379 1503h149l226 -256h-142z" />
<glyph unicode="a" horiz-adv-x="1064" d="M90 283q0 82 30 140.5t95.5 99t151.5 66.5t215 48l188 33q0 183 -68.5 260.5t-224.5 77.5q-134 0 -226 -60.5t-128 -148.5v166q15 28 42.5 55t72 54t113 44t151.5 17q217 0 319.5 -112.5t102.5 -350.5v-672h-140l-12 123q-31 -61 -114.5 -108.5t-206.5 -47.5 q-163 0 -262 80.5t-99 235.5zM240 287q0 -99 63 -151t172 -52q106 0 185.5 42t109.5 95v346l-176 -37q-197 -41 -275.5 -92.5t-78.5 -150.5z" />
<glyph unicode="b" horiz-adv-x="1169" d="M152 0v1503h153v-524q29 66 118.5 111t205.5 45q218 0 332 -134t114 -426q0 -148 -37.5 -264.5t-104 -191t-154.5 -113.5t-193 -39q-94 0 -174.5 32t-120.5 91l-23 -90h-116zM305 207q18 -34 50 -58.5t70.5 -36.5t74 -17t71.5 -5q166 0 257.5 127t91.5 350 q0 222 -79 331.5t-247 109.5q-103 0 -183 -40t-106 -108v-653z" />
<glyph unicode="c" horiz-adv-x="1015" d="M94 551q0 145 39.5 258.5t108.5 183.5t159 106t195 36q115 0 198 -35t126 -88v-160q-97 149 -312 149q-167 0 -262.5 -115.5t-95.5 -334.5q0 -220 94 -335.5t260 -115.5q223 0 324 156v-150q-41 -57 -128 -98t-210 -41q-231 0 -363.5 146t-132.5 438z" />
<glyph unicode="d" horiz-adv-x="1167" d="M94 535q0 293 131 446.5t353 153.5q82 0 164 -24.5t120 -80.5v473h154v-1503h-144l-10 121q-33 -67 -117 -110.5t-200 -43.5q-211 0 -331 139.5t-120 428.5zM250 535q0 -222 80.5 -331.5t247.5 -109.5q106 0 184.5 40t99.5 108v655q-32 61 -110 88t-158 27 q-165 0 -254.5 -126.5t-89.5 -350.5z" />
<glyph unicode="e" horiz-adv-x="1124" d="M92 551q0 120 27.5 219t74.5 166t110.5 112.5t133 66t144.5 20.5q76 0 139.5 -14.5t122.5 -50t100 -92t65.5 -145t24.5 -202.5v-131h-784q6 -195 103 -299.5t284 -104.5q132 0 221.5 45t134.5 109v-146q-48 -56 -139 -96.5t-231 -40.5q-254 0 -392.5 145t-138.5 439z M250 608h635v47q0 353 -303 353q-141 0 -233.5 -105.5t-98.5 -294.5z" />
<glyph unicode="f" horiz-adv-x="610" d="M51 979v47l135 61q-41 88 -41 166q0 130 92 205.5t238 75.5q88 0 148 -22t84 -48v-147q-26 40 -79.5 68t-125.5 28q-99 0 -152 -46.5t-53 -129.5q0 -67 39 -135h242v-123h-236v-979h-154v979h-137z" />
<glyph unicode="g" horiz-adv-x="1085" d="M63 -168q150 -127 443 -127q209 0 316.5 55t107.5 156q0 90 -79 128t-241 38q-104 0 -228.5 -19.5t-178.5 -44.5v111l162 279q-122 36 -190.5 127t-68.5 227q0 172 117 272.5t305 100.5q168 0 277 -86q31 40 86 63t119 23q36 0 63 -9v-120q-28 8 -55 8q-94 0 -137 -49 q53 -88 53 -203q0 -174 -116 -273.5t-304 -99.5q-35 0 -53 2l-121 -227q42 14 129 27.5t168 13.5q215 0 326.5 -64t111.5 -213q0 -159 -146.5 -253.5t-414.5 -94.5q-299 0 -451 119v133zM252 762q0 -121 72.5 -188.5t193.5 -67.5q122 0 196 67.5t74 188.5q0 120 -72 187 t-194 67q-121 0 -195.5 -67.5t-74.5 -186.5z" />
<glyph unicode="h" horiz-adv-x="1169" d="M152 0v1503h153v-510q34 57 121.5 99.5t202.5 42.5q206 0 301.5 -102.5t95.5 -321.5v-711h-154v682q0 177 -66.5 254.5t-213.5 77.5q-107 0 -184.5 -41t-102.5 -92v-881h-153z" />
<glyph unicode="i" horiz-adv-x="456" d="M137 1364q0 84 90 84q43 0 67.5 -21.5t24.5 -62.5q0 -39 -24.5 -60.5t-67.5 -21.5q-90 0 -90 82zM152 0v1102h153v-1102h-153z" />
<glyph unicode="j" horiz-adv-x="456" d="M-168 -213q24 -35 65.5 -54.5t86.5 -19.5q168 0 168 172v1217h153v-1202q0 -145 -80.5 -227.5t-224.5 -82.5q-55 0 -100.5 18.5t-67.5 43.5v135zM137 1364q0 84 90 84q43 0 67.5 -21.5t24.5 -62.5q0 -39 -24.5 -60.5t-67.5 -21.5q-90 0 -90 82z" />
<glyph unicode="k" horiz-adv-x="1073" d="M152 0v1503h153v-891q13 9 36 25.5t91 68.5t131 106.5t142.5 134t140.5 155.5h158q-144 -199 -422 -430l475 -672h-180l-412 578q-42 -33 -82 -62t-59 -42l-19 -13v-461h-153z" />
<glyph unicode="l" horiz-adv-x="569" d="M152 217v1286h153v-1272q0 -137 115 -137q77 0 123 68v-127q-47 -68 -162 -68q-114 0 -171.5 65t-57.5 185z" />
<glyph unicode="m" horiz-adv-x="1804" d="M152 0v1102h147l6 -111q33 59 112 101.5t189 42.5q131 0 212.5 -43.5t121.5 -135.5q42 73 127 126t219 53q198 0 287.5 -102t89.5 -322v-711h-152v682q0 178 -61 255t-199 77q-108 0 -180.5 -44.5t-101.5 -105.5q14 -66 14 -153v-711h-152v682q0 178 -61 255t-199 77 q-100 0 -171 -40t-95 -95v-879h-153z" />
<glyph unicode="n" horiz-adv-x="1169" d="M152 0v1102h143l10 -111q32 58 119 101t205 43q207 0 303 -102.5t96 -321.5v-711h-154v682q0 177 -66.5 254.5t-213.5 77.5q-108 0 -185 -41.5t-104 -93.5v-879h-153z" />
<glyph unicode="o" horiz-adv-x="1189" d="M92 551q0 145 40 258.5t111 183.5t163 106t200 36q228 0 359 -147t131 -437q0 -146 -40 -259.5t-110.5 -183.5t-162 -105.5t-199.5 -35.5q-227 0 -359.5 146.5t-132.5 437.5zM250 551q0 -221 88 -339t252 -118q167 0 258.5 118.5t91.5 338.5t-88 338.5t-252 118.5 q-165 0 -257.5 -119.5t-92.5 -337.5z" />
<glyph unicode="p" horiz-adv-x="1169" d="M152 -387v1489h143l10 -123q30 67 118 111.5t206 44.5q218 0 332 -134t114 -426q0 -148 -37.5 -264.5t-104 -191t-154.5 -113.5t-193 -39q-50 0 -99 8t-102 33t-80 64v-459h-153zM305 205q33 -62 109 -88.5t157 -26.5q166 0 256.5 127t90.5 350t-78 332t-246 109 q-104 0 -184 -40.5t-105 -107.5v-655z" />
<glyph unicode="q" horiz-adv-x="1169" d="M94 535q0 294 130 446t351 152q97 0 181 -31.5t123 -91.5l22 92h115v-1489h-152v510q-30 -66 -117.5 -110t-201.5 -44q-211 0 -331 139t-120 427zM250 535q0 -221 81 -331t249 -110q103 0 181.5 40.5t102.5 109.5v651q-36 63 -112.5 89t-157.5 26q-166 0 -255 -125.5 t-89 -349.5z" />
<glyph unicode="r" horiz-adv-x="679" d="M152 0v1102h135l10 -174q17 98 83 151.5t155 53.5q71 0 112 -31v-144q-47 37 -123 37q-80 0 -137.5 -44t-81.5 -130v-821h-153z" />
<glyph unicode="s" horiz-adv-x="935" d="M100 813q0 142 105 232t289 90q116 0 200.5 -32.5t126.5 -84.5v-156q-95 146 -323 146q-124 0 -191 -48.5t-67 -134.5q0 -84 48.5 -126t153.5 -60l95 -18q153 -28 231 -98t78 -212q0 -145 -109.5 -244.5t-306.5 -99.5q-221 0 -328 115v158q112 -146 326 -146 q130 0 199 56t69 145q0 87 -48.5 127t-160.5 61l-92 19q-143 25 -219 97.5t-76 213.5z" />
<glyph unicode="t" horiz-adv-x="704" d="M47 979v47l133 76l113 254h57v-254h287v-123h-287v-729q0 -156 129 -156q54 0 95.5 27t64.5 72v-142q-24 -36 -73.5 -60t-119.5 -24q-249 0 -249 273v739h-150z" />
<glyph unicode="u" horiz-adv-x="1155" d="M143 418v684h152v-656q0 -98 11 -160.5t41 -109.5t85 -67.5t141 -20.5q106 0 178 41t99 94v879h151v-1102h-143l-8 111q-33 -58 -116.5 -101t-198.5 -43t-191.5 27.5t-120.5 86.5t-62 139.5t-18 197.5z" />
<glyph unicode="v" horiz-adv-x="999" d="M25 1102h163l289 -797l27 -84l26 84l295 797h150l-426 -1102h-105z" />
<glyph unicode="w" horiz-adv-x="1452" d="M45 1102h154l219 -838l282 838h64l283 -838l215 838h143l-295 -1102h-98l-285 831l-287 -831h-98z" />
<glyph unicode="x" horiz-adv-x="1021" d="M29 0l399 578l-362 524h165l289 -414l279 414h157l-366 -518l405 -584h-168l-325 467l-316 -467h-157z" />
<glyph unicode="y" horiz-adv-x="1001" d="M20 1102h166l363 -912l266 912h154l-322 -1034q-28 -88 -54 -152.5t-65 -132t-82.5 -109.5t-104.5 -69t-134 -27q-60 0 -107.5 19t-72.5 49v137q63 -84 174 -84q93 0 159.5 73.5t114.5 221.5z" />
<glyph unicode="z" horiz-adv-x="917" d="M72 979v123h768v-43l-561 -936h567v-123h-770v45l571 934h-575z" />
<glyph unicode="{" horiz-adv-x="735" d="M23 549v98l67 8q164 19 164 170v336q0 301 268 301q83 0 152 -41v-114q-50 43 -135 43q-78 0 -120 -47.5t-42 -139.5v-334q0 -117 -53.5 -168t-155.5 -61v-6q102 -10 155.5 -60.5t53.5 -166.5v-338q0 -96 36.5 -142.5t125.5 -46.5q77 0 135 43v-112q-62 -41 -152 -41 q-142 0 -205 73t-63 228v340q0 75 -43 118t-121 52z" />
<glyph unicode="|" horiz-adv-x="430" d="M152 -305v1829h124v-1829h-124z" />
<glyph unicode="}" horiz-adv-x="735" d="M61 -117q58 -43 136 -43q89 0 125 46t36 143v338q0 116 53.5 166.5t155.5 60.5v6q-102 10 -155.5 61t-53.5 168v334q0 92 -41.5 139.5t-119.5 47.5q-86 0 -136 -43v114q69 41 154 41q268 0 268 -301v-336q0 -151 162 -170l68 -8v-98l-68 -8q-78 -9 -120 -52t-42 -118 v-340q0 -155 -63 -228t-205 -73q-93 0 -154 41v112z" />
<glyph unicode="~" horiz-adv-x="1273" d="M123 522q0 160 70.5 247t203.5 87q59 0 114.5 -19.5t90 -42t88.5 -63.5q113 -88 195 -88q72 0 107.5 44.5t35.5 152.5h129q0 -159 -69.5 -245.5t-200.5 -86.5q-47 0 -87 9t-78 30t-61.5 37.5t-64.5 48.5q-59 44 -104 66t-93 22q-73 0 -110 -45.5t-37 -153.5h-129z" />
<glyph unicode="&#xa1;" horiz-adv-x="464" d="M131 1030q0 45 28 74t72 29q45 0 73 -29t28 -74q0 -46 -28 -75t-73 -29q-44 0 -72 29t-28 75zM147 -256l17 985h135l18 -985h-170z" />
<glyph unicode="&#xa2;" horiz-adv-x="1050" d="M104 651q0 146 37.5 258.5t106 182.5t160.5 105.5t204 35.5q44 0 84 -6l41 172h68l-43 -185q116 -35 168 -108v-170q-69 114 -199 151l-205 -878q36 -8 88 -8q223 0 324 168v-158q-40 -61 -127.5 -102t-206.5 -41q-63 0 -110 8l-41 -178h-68l45 194q-155 47 -240.5 187 t-85.5 372zM262 651q0 -337 201 -424l203 871q-28 4 -48 4q-173 0 -264.5 -115t-91.5 -336z" />
<glyph unicode="&#xa3;" horiz-adv-x="1189" d="M74 6v141q26 -32 65 -32q73 0 84 90l43 387h-164v82h172l23 194q27 240 137.5 353.5t327.5 113.5q105 0 177.5 -34.5t109.5 -81.5v-185q-90 160 -287 160q-152 0 -221.5 -80t-87.5 -246l-23 -194h404v-82h-412l-39 -340l94 -45q188 -101 332 -101q96 0 167.5 48 t104.5 120v-182q-86 -125 -297 -125q-86 0 -169.5 31.5t-186.5 93.5l-63 39q-42 -158 -195 -158q-63 0 -96 33z" />
<glyph unicode="&#xa4;" horiz-adv-x="1191" d="M115 147l147 183q-74 119 -74 344q0 228 76 348l-149 184l61 51l141 -172q102 91 285 91q179 0 275 -84l135 165l61 -51l-141 -176q80 -125 80 -356q0 -230 -80 -352l141 -175l-61 -53l-133 164q-97 -82 -277 -82q-186 0 -287 90l-139 -172zM311 676q0 -195 67.5 -291 t223.5 -96t220.5 95.5t64.5 291.5q0 195 -65 291t-220 96q-156 0 -223.5 -96.5t-67.5 -290.5z" />
<glyph unicode="&#xa5;" horiz-adv-x="1204" d="M78 1303h170l358 -533l363 533h155l-401 -592h330v-82h-369v-144h369v-79h-369v-406h-164v406h-368v79h368v144h-368v82h329z" />
<glyph unicode="&#xa6;" horiz-adv-x="438" d="M156 -305v817h125v-817h-125zM156 707v817h125v-817h-125z" />
<glyph unicode="&#xa7;" horiz-adv-x="1058" d="M113 567q0 100 58.5 185t139.5 122q-174 78 -174 267q0 161 116.5 244t328.5 83q121 0 215.5 -31.5t128.5 -72.5v-162q-39 60 -131.5 98.5t-212.5 38.5q-147 0 -224 -42.5t-77 -137.5q0 -47 17 -80t52.5 -54.5t75.5 -34.5t102 -25l105 -23q74 -16 128 -37t100 -56 t69.5 -89t23.5 -127q0 -109 -57 -192.5t-141 -125.5q174 -67 174 -256q0 -170 -123.5 -265t-353.5 -95q-120 0 -210 30.5t-126 71.5v164q43 -61 135 -100t211 -39q323 0 323 211q0 37 -14.5 66t-36.5 48t-60 35.5t-72.5 25.5t-86.5 21l-102 23q-140 29 -220.5 102t-80.5 209 zM254 606q0 -92 49.5 -139.5t134.5 -67.5l127 -26q49 -11 84 -23q62 21 112 88t50 154q0 93 -54 139t-147 68l-135 28q-47 12 -69 21q-60 -24 -106 -89.5t-46 -152.5z" />
<glyph unicode="&#xa8;" d="M248 1366q0 37 23 57.5t63 20.5t63 -20.5t23 -57.5q0 -36 -23 -56t-63 -20t-63 20t-23 56zM625 1366q0 36 22.5 57t61.5 21q41 0 64.5 -20.5t23.5 -57.5q0 -36 -23 -56t-65 -20q-39 0 -61.5 20t-22.5 56z" />
<glyph unicode="&#xa9;" horiz-adv-x="1816" d="M82 696q0 201 64.5 362.5t177.5 264t262.5 157t324.5 54.5q140 0 264.5 -34t228.5 -103t179.5 -167.5t117.5 -235t42 -298.5q0 -163 -42 -300.5t-117.5 -236.5t-179.5 -168.5t-228.5 -103.5t-264.5 -34q-175 0 -324.5 54.5t-262.5 158t-177.5 265.5t-64.5 365zM193 694 q0 -183 54.5 -327t151.5 -235.5t227 -139t285 -47.5q156 0 287 47.5t228.5 139t152.5 235.5t55 327t-54.5 327t-152.5 235t-229 138.5t-287 47.5q-155 0 -285 -47.5t-227.5 -138.5t-151.5 -235t-54 -327zM485 694q0 105 26 192.5t69.5 147t102 101t122.5 60.5t131 19 q188 0 281 -90v-135q-80 121 -281 121q-151 0 -241.5 -105t-90.5 -307q0 -210 87.5 -314.5t250.5 -104.5q196 0 275 116v-127q-88 -94 -275 -94q-101 0 -182.5 29t-144 89t-96.5 162t-34 240z" />
<glyph unicode="&#xaa;" horiz-adv-x="968" d="M117 893q0 120 97.5 178.5t311.5 91.5l160 25q0 137 -57 193.5t-193 56.5q-114 0 -192 -46.5t-107 -113.5v129q26 48 106.5 87.5t213.5 39.5q186 0 270 -83t84 -263v-510h-115l-10 92q-25 -46 -93 -80.5t-169 -34.5q-145 0 -226 58.5t-81 179.5zM174 387v109h645v-109 h-645zM242 897q0 -154 200 -154q90 0 155 31t89 74v262l-149 -29q-163 -30 -229 -69.5t-66 -114.5z" />
<glyph unicode="&#xab;" horiz-adv-x="1075" d="M72 508q239 263 352 487h141q-124 -239 -340 -487q190 -217 340 -508h-141q-137 272 -352 508zM483 508q124 137 207 250.5t144 236.5h141q-117 -231 -340 -487q198 -227 340 -508h-141q-132 266 -351 508z" />
<glyph unicode="&#xac;" horiz-adv-x="1193" d="M154 631v137h890v-528h-137v391h-753z" />
<glyph unicode="&#xad;" horiz-adv-x="770" d="M127 549v131h516v-131h-516z" />
<glyph unicode="&#xae;" horiz-adv-x="1155" d="M104 1079q0 220 133.5 346.5t337.5 126.5q207 0 342.5 -126.5t135.5 -346.5q0 -146 -64.5 -255t-172 -163.5t-241.5 -54.5q-203 0 -337 127t-134 346zM184 1079q0 -186 111 -291.5t283 -105.5q173 0 282 105t109 292q0 188 -109 293t-282 105q-172 0 -283 -105.5 t-111 -292.5zM403 823v527h154q238 0 238 -156q0 -71 -49 -113t-138 -51l242 -207h-113l-213 193h-41v-193h-80zM483 1085h86q69 0 105.5 27.5t36.5 75.5q0 52 -34.5 74t-107.5 22h-86v-199z" />
<glyph unicode="&#xaf;" d="M242 1323v90h559v-90h-559z" />
<glyph unicode="&#xb0;" horiz-adv-x="825" d="M100 1104q0 130 85 214.5t231 84.5t228.5 -82.5t82.5 -216.5q0 -131 -86 -216t-231 -85q-146 0 -228 83t-82 218zM217 1104q0 -91 52 -146t143 -55q92 0 146 56t54 145t-52.5 144t-143.5 55t-145 -55.5t-54 -143.5z" />
<glyph unicode="&#xb1;" horiz-adv-x="1216" d="M137 0v135h942v-135h-942zM137 815v133h402v406h135v-406h405v-133h-405v-409h-135v409h-402z" />
<glyph unicode="&#xb2;" horiz-adv-x="735" d="M51 1311v112q36 41 109.5 70t173.5 29q154 0 230.5 -64.5t76.5 -181.5q0 -49 -18 -97.5t-54 -94.5t-65 -77t-74 -73l-162 -143h414v-107h-604v33l287 278q72 69 115.5 132.5t43.5 129.5q0 160 -209 160q-85 0 -155 -30t-109 -76z" />
<glyph unicode="&#xb3;" horiz-adv-x="743" d="M70 717v114q82 -65 221 -65q134 0 201 42t67 116q0 72 -66 109.5t-217 37.5h-45v25l275 305h-436v102h594v-26l-285 -320q152 -9 229.5 -63.5t77.5 -163.5q0 -116 -98.5 -191t-286.5 -75q-133 0 -231 53z" />
<glyph unicode="&#xb4;" d="M291 1247l227 256h148l-238 -256h-137z" />
<glyph unicode="&#xb6;" horiz-adv-x="937" d="M86 1214q0 78 56.5 133.5t146.5 55.5h465v-1403l-101 -41v1341h-217v-1431l-98 -41v1204q-16 -8 -49 -8q-90 0 -146.5 55t-56.5 135z" />
<glyph unicode="&#xb7;" horiz-adv-x="833" d="M326 694q0 84 90 84q43 0 67.5 -21.5t24.5 -62.5q0 -39 -24.5 -60.5t-67.5 -21.5q-90 0 -90 82z" />
<glyph unicode="&#xb8;" d="M307 -328q61 -55 176 -55q152 0 152 100q0 43 -25.5 63.5t-81.5 20.5q-79 0 -145 -32l70 231h82l-46 -139q32 12 78 12q83 0 125.5 -38.5t42.5 -110.5q0 -92 -66.5 -141.5t-187.5 -49.5q-107 0 -174 43v96z" />
<glyph unicode="&#xb9;" horiz-adv-x="647" d="M45 1300v103q120 0 196.5 24.5t131.5 81.5h61v-721h193v-104h-508v104h198v574q-84 -62 -272 -62z" />
<glyph unicode="&#xba;" horiz-adv-x="1062" d="M115 1090q0 214 118 329t304 115q189 0 299 -113.5t110 -330.5q0 -145 -56.5 -247t-149.5 -150t-214 -48q-189 0 -300 113.5t-111 331.5zM211 379v106h647v-106h-647zM246 1090q0 -166 72.5 -254t211.5 -88q141 0 215 88t74 254q0 165 -74.5 253.5t-214.5 88.5 q-139 0 -211.5 -88.5t-72.5 -253.5z" />
<glyph unicode="&#xbb;" horiz-adv-x="1075" d="M98 0q150 291 340 508q-216 248 -340 487h142q117 -232 352 -487q-211 -230 -352 -508h-142zM510 0q150 291 340 508q-216 248 -340 487h141q63 -125 145.5 -239t204.5 -248q-210 -231 -350 -508h-141z" />
<glyph unicode="&#xbc;" horiz-adv-x="1814" d="M88 1157v100q120 0 197.5 25.5t132.5 83.5h61v-723h193v-104h-510v104h198v574q-78 -60 -272 -60zM494 0l772 1358h80l-773 -1358h-79zM1036 184v25l260 610h115l-221 -532h342l6 319h109v-319h102v-103h-102v-184h-115v184h-496z" />
<glyph unicode="&#xbd;" horiz-adv-x="1832" d="M80 1157v100q120 0 197.5 25.5t132.5 83.5h61v-723h193v-104h-510v104h198v574q-78 -60 -272 -60zM487 0l773 1358h79l-772 -1358h-80zM1130 627v112q36 41 109.5 70t171.5 29q156 0 232.5 -64t76.5 -180q0 -50 -18.5 -99t-53.5 -94.5t-66 -77t-75 -71.5l-159 -146h411 v-106h-602v33l287 278q72 68 115 132t43 130q0 160 -209 160q-85 0 -154.5 -30t-108.5 -76z" />
<glyph unicode="&#xbe;" horiz-adv-x="1796" d="M106 573v113q82 -65 222 -65q135 0 202.5 41.5t67.5 115.5t-66.5 112t-216.5 38h-45v22l273 305h-434v103h591v-27l-284 -319q152 -9 229.5 -63.5t77.5 -164.5q0 -115 -98.5 -189.5t-284.5 -74.5q-149 0 -234 53zM475 0l772 1358h80l-772 -1358h-80zM1018 184v25l260 610 h115l-222 -532h342l7 319h108v-319h103v-103h-103v-184h-115v184h-495z" />
<glyph unicode="&#xbf;" horiz-adv-x="897" d="M78 39q0 104 45 180.5t135 169.5q70 77 104.5 148t34.5 165v39h154v-36q0 -70 -13.5 -128.5t-43 -108.5t-57.5 -85t-75 -84q-61 -63 -91.5 -118t-30.5 -126q0 -91 59 -149t180 -58q109 0 206 52.5t138 136.5v-168q-42 -68 -144 -112t-226 -44q-180 0 -277.5 87t-97.5 239 zM373 1030q0 45 28 74t72 29q45 0 72.5 -29t27.5 -74q0 -46 -27.5 -75t-72.5 -29q-44 0 -72 29t-28 75z" />
<glyph unicode="&#xc0;" horiz-adv-x="1220" d="M20 0l512 1233l-47 125h162l549 -1358h-162l-133 332h-598l-133 -332h-150zM315 1749h150l225 -256h-141zM350 449h504l-219 550l-29 84l-31 -84z" />
<glyph unicode="&#xc1;" horiz-adv-x="1220" d="M20 0l512 1233l-47 125h162l549 -1358h-162l-133 332h-598l-133 -332h-150zM350 449h504l-219 550l-29 84l-31 -84zM514 1493l227 256h148l-238 -256h-137z" />
<glyph unicode="&#xc2;" horiz-adv-x="1220" d="M20 0l512 1233l-47 125h162l549 -1358h-162l-133 332h-598l-133 -332h-150zM328 1493l229 256h96l228 -256h-125l-150 164l-151 -164h-127zM350 449h504l-219 550l-29 84l-31 -84z" />
<glyph unicode="&#xc3;" horiz-adv-x="1220" d="M20 0l512 1233l-47 125h162l549 -1358h-162l-133 332h-598l-133 -332h-150zM295 1522q4 97 55.5 148.5t130.5 51.5q35 0 65.5 -11t46.5 -22.5t42 -33.5q21 -17 31.5 -25t28 -15t34.5 -7q78 0 84 114h96q-4 -97 -53 -148.5t-127 -51.5q-34 0 -64 11t-46.5 22.5t-40.5 31.5 q-30 26 -51 38.5t-46 12.5q-82 0 -88 -116h-98zM350 449h504l-219 550l-29 84l-31 -84z" />
<glyph unicode="&#xc4;" horiz-adv-x="1220" d="M20 0l512 1233l-47 125h162l549 -1358h-162l-133 332h-598l-133 -332h-150zM330 1612q0 37 23 57.5t63 20.5t63 -20.5t23 -57.5q0 -36 -23 -56t-63 -20t-63 20t-23 56zM350 449h504l-219 550l-29 84l-31 -84zM707 1612q0 36 22.5 57t61.5 21q41 0 64.5 -20.5t23.5 -57.5 q0 -36 -23 -56t-65 -20q-39 0 -61.5 20t-22.5 56z" />
<glyph unicode="&#xc5;" horiz-adv-x="1220" d="M20 0l512 1233l-47 125h162l549 -1358h-162l-133 332h-598l-133 -332h-150zM350 449h504l-219 550l-29 84l-31 -84zM393 1671q0 78 56.5 129t152.5 51q97 0 154 -50.5t57 -129.5q0 -81 -56.5 -131.5t-154.5 -50.5q-97 0 -153 50.5t-56 131.5zM485 1671q0 -45 28 -73.5 t89 -28.5q62 0 91.5 28.5t29.5 73.5q0 44 -29.5 73.5t-91.5 29.5q-60 0 -88.5 -29.5t-28.5 -73.5z" />
<glyph unicode="&#xc6;" horiz-adv-x="1697" d="M10 0l660 1235l-33 123h971v-135h-772l118 -461h416v-125h-377l131 -502h484v-135h-600l-86 332h-584l-176 -332h-152zM393 449h496l-137 540l-25 92l-37 -90z" />
<glyph unicode="&#xc7;" horiz-adv-x="1191" d="M104 678q0 175 47.5 312.5t131 223.5t192 130.5t234.5 44.5q257 0 383 -119v-178q-113 161 -361 161q-215 0 -342 -143.5t-127 -423.5q0 -290 123 -437t346 -147q245 0 361 158v-158q-126 -135 -377 -135h-4l-35 -106q32 12 78 12q83 0 125.5 -38.5t42.5 -110.5 q0 -92 -66.5 -141.5t-187.5 -49.5q-107 0 -174 43v96q61 -55 176 -55q151 0 151 100q0 43 -25 63.5t-81 20.5q-80 0 -146 -32l62 202q-248 24 -387.5 200.5t-139.5 506.5z" />
<glyph unicode="&#xc8;" horiz-adv-x="1112" d="M172 0v1358h846v-135h-690v-461h450v-125h-450v-502h690v-135h-846zM322 1749h149l225 -256h-141z" />
<glyph unicode="&#xc9;" horiz-adv-x="1112" d="M172 0v1358h846v-135h-690v-461h450v-125h-450v-502h690v-135h-846zM522 1493l228 256h147l-238 -256h-137z" />
<glyph unicode="&#xca;" horiz-adv-x="1112" d="M172 0v1358h846v-135h-690v-461h450v-125h-450v-502h690v-135h-846zM334 1493l229 256h96l228 -256h-125l-150 164l-151 -164h-127z" />
<glyph unicode="&#xcb;" horiz-adv-x="1112" d="M172 0v1358h846v-135h-690v-461h450v-125h-450v-502h690v-135h-846zM336 1612q0 37 23 57.5t63 20.5t63 -20.5t23 -57.5q0 -36 -23 -56t-63 -20t-63 20t-23 56zM713 1612q0 36 22.5 57t61.5 21q41 0 64.5 -20.5t23.5 -57.5q0 -36 -23 -56t-65 -20q-39 0 -61.5 20 t-22.5 56z" />
<glyph unicode="&#xcc;" horiz-adv-x="499" d="M-41 1749h150l225 -256h-141zM172 0v1358h156v-1358h-156z" />
<glyph unicode="&#xcd;" horiz-adv-x="499" d="M160 1493l227 256h148l-238 -256h-137zM172 0v1358h156v-1358h-156z" />
<glyph unicode="&#xce;" horiz-adv-x="499" d="M-29 1493l230 256h96l227 -256h-125l-149 164l-152 -164h-127zM172 0v1358h156v-1358h-156z" />
<glyph unicode="&#xcf;" horiz-adv-x="499" d="M-27 1612q0 37 23 57.5t63 20.5t63 -20.5t23 -57.5q0 -36 -23 -56t-63 -20t-63 20t-23 56zM172 0v1358h156v-1358h-156zM350 1612q0 36 22.5 57t61.5 21q41 0 64.5 -20.5t23.5 -57.5q0 -36 -23 -56t-65 -20q-39 0 -61.5 20t-22.5 56z" />
<glyph unicode="&#xd0;" horiz-adv-x="1343" d="M23 645v82h153v631h367q172 -1 298.5 -37.5t218 -116t137.5 -211t46 -315.5q0 -146 -35.5 -261.5t-97.5 -192.5t-151 -128t-192 -73.5t-224 -22.5h-367v645h-153zM332 135h211q277 0 409.5 127t132.5 412q0 289 -127.5 419t-414.5 130h-211v-496h268v-82h-268v-510z" />
<glyph unicode="&#xd1;" horiz-adv-x="1366" d="M98 1358h183l770 -1075h2v1075h141v-1358h-115l-764 1063h-2v-1063h-141v1253zM379 1532q4 97 55.5 149t130.5 52q34 0 65 -11.5t47 -23t42 -33.5q21 -17 31.5 -25t28 -15t34.5 -7q78 0 84 115h96q-4 -97 -53.5 -149t-126.5 -52q-34 0 -64 11t-46.5 22.5t-40.5 31.5 q-21 18 -32.5 27t-29.5 17t-35 8q-82 0 -88 -117h-98z" />
<glyph unicode="&#xd2;" horiz-adv-x="1454" d="M98 678q0 139 35 257t95 200.5t140.5 140.5t171 85.5t187.5 27.5q290 0 459.5 -181t169.5 -530q0 -140 -35 -257.5t-94.5 -200t-140 -140.5t-171.5 -85.5t-188 -27.5q-293 0 -461 178.5t-168 532.5zM258 686q0 -293 123 -438.5t346 -145.5q100 0 184.5 36t149 105.5 t101 180t36.5 250.5q0 287 -125 434t-346 147q-99 0 -184 -36t-149 -105.5t-100 -179t-36 -248.5zM440 1749h150l225 -256h-141z" />
<glyph unicode="&#xd3;" horiz-adv-x="1454" d="M98 678q0 139 35 257t95 200.5t140.5 140.5t171 85.5t187.5 27.5q290 0 459.5 -181t169.5 -530q0 -140 -35 -257.5t-94.5 -200t-140 -140.5t-171.5 -85.5t-188 -27.5q-293 0 -461 178.5t-168 532.5zM258 686q0 -293 123 -438.5t346 -145.5q100 0 184.5 36t149 105.5 t101 180t36.5 250.5q0 287 -125 434t-346 147q-99 0 -184 -36t-149 -105.5t-100 -179t-36 -248.5zM639 1493l227 256h148l-238 -256h-137z" />
<glyph unicode="&#xd4;" horiz-adv-x="1454" d="M98 678q0 139 35 257t95 200.5t140.5 140.5t171 85.5t187.5 27.5q290 0 459.5 -181t169.5 -530q0 -140 -35 -257.5t-94.5 -200t-140 -140.5t-171.5 -85.5t-188 -27.5q-293 0 -461 178.5t-168 532.5zM258 686q0 -293 123 -438.5t346 -145.5q100 0 184.5 36t149 105.5 t101 180t36.5 250.5q0 287 -125 434t-346 147q-99 0 -184 -36t-149 -105.5t-100 -179t-36 -248.5zM451 1493l229 256h96l228 -256h-125l-150 164l-151 -164h-127z" />
<glyph unicode="&#xd5;" horiz-adv-x="1454" d="M98 678q0 139 35 257t95 200.5t140.5 140.5t171 85.5t187.5 27.5q290 0 459.5 -181t169.5 -530q0 -140 -35 -257.5t-94.5 -200t-140 -140.5t-171.5 -85.5t-188 -27.5q-293 0 -461 178.5t-168 532.5zM258 686q0 -293 123 -438.5t346 -145.5q100 0 184.5 36t149 105.5 t101 180t36.5 250.5q0 287 -125 434t-346 147q-99 0 -184 -36t-149 -105.5t-100 -179t-36 -248.5zM418 1522q4 97 55.5 148.5t130.5 51.5q35 0 65.5 -11t46.5 -22.5t42 -33.5q21 -17 31.5 -25t28 -15t34.5 -7q78 0 84 114h96q-4 -97 -53 -148.5t-127 -51.5q-34 0 -64.5 11 t-47 22.5t-40.5 31.5q-30 27 -50.5 39t-45.5 12q-82 0 -88 -116h-98z" />
<glyph unicode="&#xd6;" horiz-adv-x="1454" d="M98 678q0 139 35 257t95 200.5t140.5 140.5t171 85.5t187.5 27.5q290 0 459.5 -181t169.5 -530q0 -140 -35 -257.5t-94.5 -200t-140 -140.5t-171.5 -85.5t-188 -27.5q-293 0 -461 178.5t-168 532.5zM258 686q0 -293 123 -438.5t346 -145.5q100 0 184.5 36t149 105.5 t101 180t36.5 250.5q0 287 -125 434t-346 147q-99 0 -184 -36t-149 -105.5t-100 -179t-36 -248.5zM455 1612q0 37 23 57.5t63 20.5t63 -20.5t23 -57.5q0 -36 -23 -56t-63 -20t-63 20t-23 56zM831 1612q0 36 22.5 57t61.5 21q41 0 65 -20.5t24 -57.5q0 -36 -23.5 -56 t-65.5 -20q-39 0 -61.5 20t-22.5 56z" />
<glyph unicode="&#xd7;" horiz-adv-x="1011" d="M123 993l96 97l285 -289l287 286l94 -96l-285 -284l289 -287l-96 -96l-289 288l-283 -284l-96 94l285 285z" />
<glyph unicode="&#xd8;" horiz-adv-x="1458" d="M100 0l146 170q-146 182 -146 508q0 139 35 257t95 200.5t140.5 140.5t171 85.5t187.5 27.5q265 0 428 -150l100 119h107l-152 -178q146 -186 146 -502q0 -140 -35 -257.5t-94.5 -200t-140 -140.5t-171.5 -85.5t-188 -27.5q-270 0 -426 144l-94 -111h-109zM260 686 q0 -250 90 -393l709 831q-119 131 -330 131q-99 0 -184 -36t-149 -105.5t-100 -179t-36 -248.5zM401 225q117 -123 328 -123q100 0 184.5 36t149 105.5t101 180t36.5 250.5q0 237 -90 385z" />
<glyph unicode="&#xd9;" horiz-adv-x="1406" d="M160 543v815h157v-817q0 -232 100.5 -335.5t289.5 -103.5q389 0 389 439v817h153v-815q0 -149 -41.5 -261.5t-117 -180t-174.5 -101t-220 -33.5q-536 0 -536 576zM418 1749h149l226 -256h-142z" />
<glyph unicode="&#xda;" horiz-adv-x="1406" d="M160 543v815h157v-817q0 -232 100.5 -335.5t289.5 -103.5q389 0 389 439v817h153v-815q0 -149 -41.5 -261.5t-117 -180t-174.5 -101t-220 -33.5q-536 0 -536 576zM616 1493l228 256h147l-237 -256h-138z" />
<glyph unicode="&#xdb;" horiz-adv-x="1406" d="M160 543v815h157v-817q0 -232 100.5 -335.5t289.5 -103.5q389 0 389 439v817h153v-815q0 -149 -41.5 -261.5t-117 -180t-174.5 -101t-220 -33.5q-536 0 -536 576zM428 1493l229 256h97l227 -256h-125l-149 164l-152 -164h-127z" />
<glyph unicode="&#xdc;" horiz-adv-x="1406" d="M160 543v815h157v-817q0 -232 100.5 -335.5t289.5 -103.5q389 0 389 439v817h153v-815q0 -149 -41.5 -261.5t-117 -180t-174.5 -101t-220 -33.5q-536 0 -536 576zM432 1612q0 37 23 57.5t63 20.5t63 -20.5t23 -57.5q0 -36 -23 -56t-63 -20t-63 20t-23 56zM809 1612 q0 36 22.5 57t61.5 21q41 0 64.5 -20.5t23.5 -57.5q0 -36 -23 -56t-65 -20q-39 0 -61.5 20t-22.5 56z" />
<glyph unicode="&#xdd;" horiz-adv-x="1116" d="M16 1358h174l375 -625l379 625h156l-465 -760v-598h-156v598zM471 1493l227 256h148l-238 -256h-137z" />
<glyph unicode="&#xde;" horiz-adv-x="1142" d="M172 0v1358h156v-221h211q286 0 415 -103.5t129 -314.5q0 -221 -132.5 -348t-411.5 -127h-129v121h129q387 0 387 337q0 160 -91 235t-298 75h-209v-1012h-156z" />
<glyph unicode="&#xdf;" horiz-adv-x="1175" d="M152 0v1110q0 137 59.5 234.5t158 143.5t226.5 46q202 0 315 -98t113 -269q0 -152 -78.5 -247t-216.5 -127v-5q156 -16 256 -115t100 -270q0 -200 -113 -318t-315 -118q-72 0 -132.5 19t-88.5 47v139q31 -34 84 -56t119 -22q136 0 213.5 81.5t77.5 223.5 q0 151 -97.5 229.5t-275.5 80.5v129q150 10 230.5 90.5t80.5 214.5q0 128 -74.5 199t-197.5 71q-132 0 -211.5 -76t-79.5 -227v-1110h-153z" />
<glyph unicode="&#xe0;" horiz-adv-x="1064" d="M90 283q0 82 30 140.5t95.5 99t151.5 66.5t215 48l188 33q0 183 -68.5 260.5t-224.5 77.5q-134 0 -226 -60.5t-128 -148.5v166q15 28 42.5 55t72 54t113 44t151.5 17q217 0 319.5 -112.5t102.5 -350.5v-672h-140l-12 123q-31 -61 -114.5 -108.5t-206.5 -47.5 q-163 0 -262 80.5t-99 235.5zM223 1503h150l225 -256h-141zM240 287q0 -99 63 -151t172 -52q106 0 185.5 42t109.5 95v346l-176 -37q-197 -41 -275.5 -92.5t-78.5 -150.5z" />
<glyph unicode="&#xe1;" horiz-adv-x="1064" d="M90 283q0 82 30 140.5t95.5 99t151.5 66.5t215 48l188 33q0 183 -68.5 260.5t-224.5 77.5q-134 0 -226 -60.5t-128 -148.5v166q15 28 42.5 55t72 54t113 44t151.5 17q217 0 319.5 -112.5t102.5 -350.5v-672h-140l-12 123q-31 -61 -114.5 -108.5t-206.5 -47.5 q-163 0 -262 80.5t-99 235.5zM240 287q0 -99 63 -151t172 -52q106 0 185.5 42t109.5 95v346l-176 -37q-197 -41 -275.5 -92.5t-78.5 -150.5zM422 1247l227 256h148l-238 -256h-137z" />
<glyph unicode="&#xe2;" horiz-adv-x="1064" d="M90 283q0 82 30 140.5t95.5 99t151.5 66.5t215 48l188 33q0 183 -68.5 260.5t-224.5 77.5q-134 0 -226 -60.5t-128 -148.5v166q15 28 42.5 55t72 54t113 44t151.5 17q217 0 319.5 -112.5t102.5 -350.5v-672h-140l-12 123q-31 -61 -114.5 -108.5t-206.5 -47.5 q-163 0 -262 80.5t-99 235.5zM236 1247l229 256h96l227 -256h-124l-150 164l-152 -164h-126zM240 287q0 -99 63 -151t172 -52q106 0 185.5 42t109.5 95v346l-176 -37q-197 -41 -275.5 -92.5t-78.5 -150.5z" />
<glyph unicode="&#xe3;" horiz-adv-x="1064" d="M90 283q0 82 30 140.5t95.5 99t151.5 66.5t215 48l188 33q0 183 -68.5 260.5t-224.5 77.5q-134 0 -226 -60.5t-128 -148.5v166q15 28 42.5 55t72 54t113 44t151.5 17q217 0 319.5 -112.5t102.5 -350.5v-672h-140l-12 123q-31 -61 -114.5 -108.5t-206.5 -47.5 q-163 0 -262 80.5t-99 235.5zM201 1276q4 97 55.5 149t130.5 52q34 0 65 -11.5t47 -23t42 -33.5q21 -17 31.5 -25t28 -15t34.5 -7q78 0 84 115h96q-4 -97 -53.5 -149t-126.5 -52q-34 0 -64.5 11t-47 22.5t-40.5 31.5q-21 19 -32 27.5t-29 16.5t-35 8q-82 0 -88 -117h-98z M240 287q0 -99 63 -151t172 -52q106 0 185.5 42t109.5 95v346l-176 -37q-197 -41 -275.5 -92.5t-78.5 -150.5z" />
<glyph unicode="&#xe4;" horiz-adv-x="1064" d="M90 283q0 82 30 140.5t95.5 99t151.5 66.5t215 48l188 33q0 183 -68.5 260.5t-224.5 77.5q-134 0 -226 -60.5t-128 -148.5v166q15 28 42.5 55t72 54t113 44t151.5 17q217 0 319.5 -112.5t102.5 -350.5v-672h-140l-12 123q-31 -61 -114.5 -108.5t-206.5 -47.5 q-163 0 -262 80.5t-99 235.5zM238 1366q0 37 23 57.5t63 20.5t63 -20.5t23 -57.5q0 -36 -23 -56t-63 -20t-63 20t-23 56zM240 287q0 -99 63 -151t172 -52q106 0 185.5 42t109.5 95v346l-176 -37q-197 -41 -275.5 -92.5t-78.5 -150.5zM614 1366q0 36 22.5 57t61.5 21 q41 0 64.5 -20.5t23.5 -57.5q0 -36 -23 -56t-65 -20q-39 0 -61.5 20t-22.5 56z" />
<glyph unicode="&#xe5;" horiz-adv-x="1064" d="M90 283q0 82 30 140.5t95.5 99t151.5 66.5t215 48l188 33q0 183 -68.5 260.5t-224.5 77.5q-134 0 -226 -60.5t-128 -148.5v166q15 28 42.5 55t72 54t113 44t151.5 17q217 0 319.5 -112.5t102.5 -350.5v-672h-140l-12 123q-31 -61 -114.5 -108.5t-206.5 -47.5 q-163 0 -262 80.5t-99 235.5zM240 287q0 -99 63 -151t172 -52q106 0 185.5 42t109.5 95v346l-176 -37q-197 -41 -275.5 -92.5t-78.5 -150.5zM301 1425q0 79 56.5 130t152.5 51q97 0 154 -51t57 -130q0 -81 -56.5 -131.5t-154.5 -50.5q-97 0 -153 50.5t-56 131.5zM393 1425 q0 -45 28 -73.5t89 -28.5q62 0 91.5 28.5t29.5 73.5q0 44 -29.5 73.5t-91.5 29.5q-60 0 -88.5 -29.5t-28.5 -73.5z" />
<glyph unicode="&#xe6;" horiz-adv-x="1785" d="M90 283q0 82 30 140.5t95.5 99t151.5 66.5t215 48l188 33q0 183 -68.5 260.5t-224.5 77.5q-134 0 -226 -60.5t-128 -148.5v166q15 28 42.5 55t72 54t113 44t151.5 17q153 0 241 -61t125 -191q55 128 158 190t234 62q73 0 134.5 -14.5t118 -50t95.5 -92t62.5 -144.5 t23.5 -203v-131h-766q6 -198 95.5 -301t276.5 -103q130 0 220.5 45.5t136.5 108.5v-148q-50 -54 -141.5 -94.5t-227.5 -40.5q-302 0 -428 205q-43 -85 -144 -145t-259 -60q-167 0 -267 79.5t-100 236.5zM240 287q0 -101 65 -152t187 -51q117 0 204 53.5t117 126.5 q-22 62 -30 124.5t-13 178.5l-176 -37q-195 -40 -274.5 -91.5t-79.5 -151.5zM930 608h614v47q0 353 -293 353q-142 0 -229.5 -104t-91.5 -296z" />
<glyph unicode="&#xe7;" horiz-adv-x="1019" d="M96 551q0 145 39.5 258.5t108.5 183.5t159 106t195 36q115 0 198 -35t126 -88v-160q-97 149 -312 149q-167 0 -262.5 -115.5t-95.5 -334.5q0 -220 94 -335.5t260 -115.5q223 0 324 156v-150q-41 -57 -128 -98t-210 -41l-35 -106q32 12 78 12q83 0 125.5 -38.5 t42.5 -110.5q0 -92 -66.5 -141.5t-187.5 -49.5q-107 0 -174 43v96q61 -55 176 -55q151 0 151 100q0 43 -25 63.5t-81 20.5q-79 0 -145 -32l61 202q-196 24 -306 169t-110 411z" />
<glyph unicode="&#xe8;" horiz-adv-x="1124" d="M92 551q0 120 27.5 219t74.5 166t110.5 112.5t133 66t144.5 20.5q76 0 139.5 -14.5t122.5 -50t100 -92t65.5 -145t24.5 -202.5v-131h-784q6 -195 103 -299.5t284 -104.5q132 0 221.5 45t134.5 109v-146q-48 -56 -139 -96.5t-231 -40.5q-254 0 -392.5 145t-138.5 439z M250 608h635v47q0 353 -303 353q-141 0 -233.5 -105.5t-98.5 -294.5zM295 1503h149l226 -256h-142z" />
<glyph unicode="&#xe9;" horiz-adv-x="1124" d="M92 551q0 120 27.5 219t74.5 166t110.5 112.5t133 66t144.5 20.5q76 0 139.5 -14.5t122.5 -50t100 -92t65.5 -145t24.5 -202.5v-131h-784q6 -195 103 -299.5t284 -104.5q132 0 221.5 45t134.5 109v-146q-48 -56 -139 -96.5t-231 -40.5q-254 0 -392.5 145t-138.5 439z M250 608h635v47q0 353 -303 353q-141 0 -233.5 -105.5t-98.5 -294.5zM494 1247l227 256h147l-237 -256h-137z" />
<glyph unicode="&#xea;" horiz-adv-x="1124" d="M92 551q0 120 27.5 219t74.5 166t110.5 112.5t133 66t144.5 20.5q76 0 139.5 -14.5t122.5 -50t100 -92t65.5 -145t24.5 -202.5v-131h-784q6 -195 103 -299.5t284 -104.5q132 0 221.5 45t134.5 109v-146q-48 -56 -139 -96.5t-231 -40.5q-254 0 -392.5 145t-138.5 439z M250 608h635v47q0 353 -303 353q-141 0 -233.5 -105.5t-98.5 -294.5zM307 1247l230 256h96l227 -256h-125l-149 164l-152 -164h-127z" />
<glyph unicode="&#xeb;" horiz-adv-x="1124" d="M92 551q0 120 27.5 219t74.5 166t110.5 112.5t133 66t144.5 20.5q76 0 139.5 -14.5t122.5 -50t100 -92t65.5 -145t24.5 -202.5v-131h-784q6 -195 103 -299.5t284 -104.5q132 0 221.5 45t134.5 109v-146q-48 -56 -139 -96.5t-231 -40.5q-254 0 -392.5 145t-138.5 439z M250 608h635v47q0 353 -303 353q-141 0 -233.5 -105.5t-98.5 -294.5zM309 1366q0 37 23 57.5t63 20.5t63 -20.5t23 -57.5q0 -36 -23 -56t-63 -20t-63 20t-23 56zM686 1366q0 36 22.5 57t61.5 21q41 0 64.5 -20.5t23.5 -57.5q0 -36 -23 -56t-65 -20q-39 0 -61.5 20t-22.5 56z " />
<glyph unicode="&#xec;" horiz-adv-x="456" d="M-59 1503h149l225 -256h-141zM152 0v1102h153v-1102h-153z" />
<glyph unicode="&#xed;" horiz-adv-x="456" d="M139 1247l228 256h147l-238 -256h-137zM152 0v1102h153v-1102h-153z" />
<glyph unicode="&#xee;" horiz-adv-x="456" d="M-49 1247l229 256h96l228 -256h-125l-150 164l-151 -164h-127zM152 0v1102h153v-1102h-153z" />
<glyph unicode="&#xef;" horiz-adv-x="456" d="M-45 1366q0 37 23 57.5t63 20.5t63 -20.5t23 -57.5q0 -36 -23 -56t-63 -20t-63 20t-23 56zM152 0v1102h153v-1102h-153zM332 1366q0 36 22.5 57t61.5 21q41 0 64.5 -20.5t23.5 -57.5q0 -36 -23 -56t-65 -20q-39 0 -61.5 20t-22.5 56z" />
<glyph unicode="&#xf0;" horiz-adv-x="1191" d="M94 510q0 103 26 190.5t71 149.5t105.5 105t129.5 64t143 21q116 0 193.5 -47t114.5 -112l4 2q-85 237 -314 417l-139 -116h-98l186 155q-129 93 -295 156v8h191q109 -44 186 -94l113 94h98l-156 -131q196 -143 320.5 -361t124.5 -472q0 -140 -40.5 -250.5t-111 -180 t-162.5 -105.5t-200 -36q-224 0 -357 141.5t-133 401.5zM252 510q0 -193 89 -304.5t251 -111.5q163 0 256.5 112t93.5 304q0 193 -89 304.5t-253 111.5q-163 0 -255.5 -112t-92.5 -304z" />
<glyph unicode="&#xf1;" horiz-adv-x="1169" d="M152 0v1102h143l10 -111q32 58 119 101t205 43q207 0 303 -102.5t96 -321.5v-711h-154v682q0 177 -66.5 254.5t-213.5 77.5q-108 0 -185 -41.5t-104 -93.5v-879h-153zM281 1276q4 97 55.5 149t130.5 52q34 0 65 -11.5t47 -23t42 -33.5q21 -17 31.5 -25t28 -15t34.5 -7 q78 0 84 115h96q-4 -97 -53.5 -149t-126.5 -52q-34 0 -64.5 11t-47 22.5t-40.5 31.5q-21 19 -32 27.5t-29 16.5t-35 8q-82 0 -88 -117h-98z" />
<glyph unicode="&#xf2;" horiz-adv-x="1189" d="M92 551q0 145 40 258.5t111 183.5t163 106t200 36q228 0 359 -147t131 -437q0 -146 -40 -259.5t-110.5 -183.5t-162 -105.5t-199.5 -35.5q-227 0 -359.5 146.5t-132.5 437.5zM250 551q0 -221 88 -339t252 -118q167 0 258.5 118.5t91.5 338.5t-88 338.5t-252 118.5 q-165 0 -257.5 -119.5t-92.5 -337.5zM307 1503h150l225 -256h-141z" />
<glyph unicode="&#xf3;" horiz-adv-x="1189" d="M92 551q0 145 40 258.5t111 183.5t163 106t200 36q228 0 359 -147t131 -437q0 -146 -40 -259.5t-110.5 -183.5t-162 -105.5t-199.5 -35.5q-227 0 -359.5 146.5t-132.5 437.5zM250 551q0 -221 88 -339t252 -118q167 0 258.5 118.5t91.5 338.5t-88 338.5t-252 118.5 q-165 0 -257.5 -119.5t-92.5 -337.5zM506 1247l227 256h148l-238 -256h-137z" />
<glyph unicode="&#xf4;" horiz-adv-x="1189" d="M92 551q0 145 40 258.5t111 183.5t163 106t200 36q228 0 359 -147t131 -437q0 -146 -40 -259.5t-110.5 -183.5t-162 -105.5t-199.5 -35.5q-227 0 -359.5 146.5t-132.5 437.5zM250 551q0 -221 88 -339t252 -118q167 0 258.5 118.5t91.5 338.5t-88 338.5t-252 118.5 q-165 0 -257.5 -119.5t-92.5 -337.5zM317 1247l230 256h96l227 -256h-125l-149 164l-152 -164h-127z" />
<glyph unicode="&#xf5;" horiz-adv-x="1189" d="M92 551q0 145 40 258.5t111 183.5t163 106t200 36q228 0 359 -147t131 -437q0 -146 -40 -259.5t-110.5 -183.5t-162 -105.5t-199.5 -35.5q-227 0 -359.5 146.5t-132.5 437.5zM250 551q0 -221 88 -339t252 -118q167 0 258.5 118.5t91.5 338.5t-88 338.5t-252 118.5 q-165 0 -257.5 -119.5t-92.5 -337.5zM285 1276q4 97 55.5 149t130.5 52q34 0 65 -11.5t47 -23t42 -33.5q21 -17 31.5 -25t28 -15t34.5 -7q78 0 84 115h96q-4 -97 -53.5 -149t-126.5 -52q-34 0 -64.5 11t-47 22.5t-40.5 31.5q-21 19 -32 27.5t-29 16.5t-35 8q-82 0 -88 -117 h-98z" />
<glyph unicode="&#xf6;" horiz-adv-x="1189" d="M92 551q0 145 40 258.5t111 183.5t163 106t200 36q228 0 359 -147t131 -437q0 -146 -40 -259.5t-110.5 -183.5t-162 -105.5t-199.5 -35.5q-227 0 -359.5 146.5t-132.5 437.5zM250 551q0 -221 88 -339t252 -118q167 0 258.5 118.5t91.5 338.5t-88 338.5t-252 118.5 q-165 0 -257.5 -119.5t-92.5 -337.5zM322 1366q0 37 23 57.5t63 20.5t63 -20.5t23 -57.5q0 -36 -23 -56t-63 -20t-63 20t-23 56zM698 1366q0 36 22.5 57t61.5 21q41 0 64.5 -20.5t23.5 -57.5q0 -36 -23 -56t-65 -20q-39 0 -61.5 20t-22.5 56z" />
<glyph unicode="&#xf7;" horiz-adv-x="1140" d="M115 621v135h907v-135h-907zM463 348q0 45 28 75t72 30t73.5 -30.5t29.5 -74.5q0 -46 -29 -75t-74 -29q-44 0 -72 29t-28 75zM463 1026q0 46 28 75t72 29q45 0 74 -29t29 -75q0 -44 -29.5 -73t-73.5 -29t-72 29t-28 73z" />
<glyph unicode="&#xf8;" horiz-adv-x="1193" d="M61 0l132 156q-99 148 -99 395q0 145 40 258.5t111 183.5t163 106t200 36q196 0 320 -109l63 76h107l-115 -135q115 -149 115 -416q0 -146 -40 -259.5t-110.5 -183.5t-162 -105.5t-199.5 -35.5q-214 0 -340 123l-76 -90h-109zM252 551q0 -168 47 -268l535 630 q-89 95 -232 95q-165 0 -257.5 -119.5t-92.5 -337.5zM344 207q87 -113 248 -113q167 0 258.5 118.5t91.5 338.5q0 182 -61 295z" />
<glyph unicode="&#xf9;" horiz-adv-x="1155" d="M143 418v684h152v-656q0 -98 11 -160.5t41 -109.5t85 -67.5t141 -20.5q106 0 178 41t99 94v879h151v-1102h-143l-8 111q-33 -58 -116.5 -101t-198.5 -43t-191.5 27.5t-120.5 86.5t-62 139.5t-18 197.5zM287 1503h149l226 -256h-142z" />
<glyph unicode="&#xfa;" horiz-adv-x="1155" d="M143 418v684h152v-656q0 -98 11 -160.5t41 -109.5t85 -67.5t141 -20.5q106 0 178 41t99 94v879h151v-1102h-143l-8 111q-33 -58 -116.5 -101t-198.5 -43t-191.5 27.5t-120.5 86.5t-62 139.5t-18 197.5zM485 1247l228 256h147l-237 -256h-138z" />
<glyph unicode="&#xfb;" horiz-adv-x="1155" d="M143 418v684h152v-656q0 -98 11 -160.5t41 -109.5t85 -67.5t141 -20.5q106 0 178 41t99 94v879h151v-1102h-143l-8 111q-33 -58 -116.5 -101t-198.5 -43t-191.5 27.5t-120.5 86.5t-62 139.5t-18 197.5zM297 1247l229 256h97l227 -256h-125l-150 164l-151 -164h-127z" />
<glyph unicode="&#xfc;" horiz-adv-x="1155" d="M143 418v684h152v-656q0 -98 11 -160.5t41 -109.5t85 -67.5t141 -20.5q106 0 178 41t99 94v879h151v-1102h-143l-8 111q-33 -58 -116.5 -101t-198.5 -43t-191.5 27.5t-120.5 86.5t-62 139.5t-18 197.5zM301 1366q0 37 23 57.5t63 20.5t63 -20.5t23 -57.5q0 -36 -23 -56 t-63 -20t-63 20t-23 56zM678 1366q0 36 22.5 57t61.5 21q41 0 64.5 -20.5t23.5 -57.5q0 -36 -23 -56t-65 -20q-39 0 -61.5 20t-22.5 56z" />
<glyph unicode="&#xfd;" horiz-adv-x="1001" d="M20 1102h166l363 -912l266 912h154l-322 -1034q-28 -88 -54 -152.5t-65 -132t-82.5 -109.5t-104.5 -69t-134 -27q-60 0 -107.5 19t-72.5 49v137q63 -84 174 -84q93 0 159.5 73.5t114.5 221.5zM426 1247l227 256h148l-238 -256h-137z" />
<glyph unicode="&#xfe;" horiz-adv-x="1169" d="M152 -387v1890h153v-524q30 67 118 111.5t206 44.5q218 0 332 -134t114 -426q0 -148 -37.5 -264.5t-104 -191t-154.5 -113.5t-193 -39q-50 0 -99 8t-102 33t-80 64v-459h-153zM305 205q33 -62 109 -88.5t157 -26.5q166 0 256.5 127t90.5 350t-78 332t-246 109 q-104 0 -184 -40.5t-105 -107.5v-655z" />
<glyph unicode="&#xff;" horiz-adv-x="1001" d="M20 1102h166l363 -912l266 912h154l-322 -1034q-28 -88 -54 -152.5t-65 -132t-82.5 -109.5t-104.5 -69t-134 -27q-60 0 -107.5 19t-72.5 49v137q63 -84 174 -84q93 0 159.5 73.5t114.5 221.5zM240 1366q0 37 23 57.5t63 20.5t63 -20.5t23 -57.5q0 -36 -23 -56t-63 -20 t-63 20t-23 56zM616 1366q0 36 22.5 57t61.5 21q41 0 64.5 -20.5t23.5 -57.5q0 -36 -23 -56t-65 -20q-39 0 -61.5 20t-22.5 56z" />
<glyph unicode="&#x152;" horiz-adv-x="2148" d="M98 678q0 139 35 257t94.5 200.5t139 140.5t168 85.5t182.5 27.5q370 0 481 -312v281h846v-135h-690v-461h450v-125h-450v-502h690v-135h-846v303q-59 -166 -187.5 -251t-293.5 -85q-139 0 -251.5 43t-195 129t-127.5 223t-45 316zM258 686q0 -293 123 -438.5t346 -145.5 q100 0 184.5 36t149 105.5t101 180t36.5 250.5q0 287 -125 434t-346 147q-99 0 -184 -36t-149 -105.5t-100 -179t-36 -248.5z" />
<glyph unicode="&#x153;" horiz-adv-x="1976" d="M92 551q0 145 40 258.5t110.5 183.5t161 106t196.5 36q323 0 422 -299q35 107 103 176t145 96t168 27q62 0 115.5 -10.5t105 -33t91.5 -61.5t70.5 -93.5t47 -132t16.5 -173.5v-131h-784q5 -195 102.5 -299.5t284.5 -104.5q132 0 223.5 45.5t136.5 108.5v-146 q-48 -55 -141 -96t-233 -41q-183 0 -296 70.5t-165 226.5q-54 -153 -166 -225t-268 -72q-223 0 -354.5 147t-131.5 437zM250 551q0 -221 88 -339t252 -118q167 0 258.5 118.5t91.5 338.5t-88 338.5t-252 118.5q-165 0 -257.5 -119.5t-92.5 -337.5zM1100 608h635v47 q0 353 -305 353q-140 0 -233 -105.5t-97 -294.5z" />
<glyph unicode="&#x178;" horiz-adv-x="1116" d="M16 1358h174l375 -625l379 625h156l-465 -760v-598h-156v598zM287 1612q0 37 23 57.5t63 20.5t63 -20.5t23 -57.5q0 -36 -23 -56t-63 -20t-63 20t-23 56zM664 1612q0 36 22.5 57t61.5 21q41 0 64.5 -20.5t23.5 -57.5q0 -36 -23 -56t-65 -20q-39 0 -61.5 20t-22.5 56z" />
<glyph unicode="&#x2c6;" d="M244 1247l229 256h96l228 -256h-125l-150 164l-151 -164h-127z" />
<glyph unicode="&#x2dc;" d="M215 1276q4 97 55.5 149t130.5 52q34 0 65 -11.5t47 -23t42 -33.5q21 -17 31.5 -25t28 -15t34.5 -7q78 0 84 115h96q-4 -97 -53.5 -149t-126.5 -52q-34 0 -64 11t-46.5 22.5t-40.5 31.5q-21 18 -32.5 27t-29.5 17t-35 8q-82 0 -88 -117h-98z" />
<glyph unicode="&#x2000;" horiz-adv-x="925" />
<glyph unicode="&#x2001;" horiz-adv-x="1851" />
<glyph unicode="&#x2002;" horiz-adv-x="925" />
<glyph unicode="&#x2003;" horiz-adv-x="1851" />
<glyph unicode="&#x2004;" horiz-adv-x="617" />
<glyph unicode="&#x2005;" horiz-adv-x="462" />
<glyph unicode="&#x2006;" horiz-adv-x="308" />
<glyph unicode="&#x2007;" horiz-adv-x="308" />
<glyph unicode="&#x2008;" horiz-adv-x="231" />
<glyph unicode="&#x2009;" horiz-adv-x="370" />
<glyph unicode="&#x200a;" horiz-adv-x="102" />
<glyph unicode="&#x2010;" horiz-adv-x="770" d="M127 549v131h516v-131h-516z" />
<glyph unicode="&#x2011;" horiz-adv-x="770" d="M127 549v131h516v-131h-516z" />
<glyph unicode="&#x2012;" horiz-adv-x="770" d="M127 549v131h516v-131h-516z" />
<glyph unicode="&#x2013;" horiz-adv-x="1396" d="M125 555v121h1145v-121h-1145z" />
<glyph unicode="&#x2014;" horiz-adv-x="1837" d="M125 555v121h1587v-121h-1587z" />
<glyph unicode="&#x2018;" horiz-adv-x="423" d="M119 1137q0 92 41 181t88 142l69 -12q-24 -44 -44 -110t-23 -126q27 -9 42 -31.5t15 -52.5q0 -42 -27 -69t-69 -27t-67 28t-25 77z" />
<glyph unicode="&#x2019;" horiz-adv-x="411" d="M117 1040q24 44 44 110t23 126q-27 9 -42 31.5t-15 52.5q0 42 27 69t69 27t67 -27.5t25 -76.5q0 -92 -41 -181.5t-88 -142.5z" />
<glyph unicode="&#x201a;" horiz-adv-x="425" d="M109 -236q24 44 44 110t23 126q-27 9 -42 31.5t-15 52.5q0 42 27 69t69 27t67 -27.5t25 -76.5q0 -92 -41 -181.5t-88 -142.5z" />
<glyph unicode="&#x201c;" horiz-adv-x="690" d="M119 1137q0 92 41 181t88 142l69 -12q-24 -44 -44 -110t-23 -126q27 -9 42 -31.5t15 -52.5q0 -42 -27 -69t-69 -27t-67 28t-25 77zM387 1137q0 92 41 181t88 142l70 -12q-25 -45 -45 -110.5t-23 -125.5q27 -9 42 -31.5t15 -52.5q0 -42 -27 -69t-69 -27t-67 28t-25 77z " />
<glyph unicode="&#x201d;" horiz-adv-x="679" d="M117 1040q24 44 44 110t23 126q-27 9 -42 31.5t-15 52.5q0 42 27 69t69 27t67 -27.5t25 -76.5q0 -92 -41 -181.5t-88 -142.5zM385 1040q25 45 45 110.5t23 125.5q-27 9 -42.5 31.5t-15.5 52.5q0 42 27.5 69t69.5 27t67 -27.5t25 -76.5q0 -92 -41 -181.5t-88 -142.5z" />
<glyph unicode="&#x201e;" horiz-adv-x="692" d="M109 -236q24 44 44 110t23 126q-27 9 -42 31.5t-15 52.5q0 42 27 69t69 27t67 -27.5t25 -76.5q0 -92 -41 -181.5t-88 -142.5zM375 -236q24 44 44 110t23 126q-27 9 -42 31.5t-15 52.5q0 42 27 69t69 27t67 -27.5t25 -76.5q0 -92 -41 -181.5t-88 -142.5z" />
<glyph unicode="&#x2022;" horiz-adv-x="552" d="M119 705q0 70 43.5 115.5t113.5 45.5q69 0 113.5 -46t44.5 -115q0 -71 -44.5 -116.5t-113.5 -45.5q-70 0 -113.5 45.5t-43.5 116.5z" />
<glyph unicode="&#x2026;" horiz-adv-x="1093" d="M90 70q0 45 27 74.5t71 29.5q43 0 71 -30t28 -74q0 -43 -28.5 -73t-70.5 -30q-43 0 -70.5 29.5t-27.5 73.5zM446 70q0 44 29 74t72 30t70.5 -29.5t27.5 -74.5q0 -43 -28 -73t-70 -30q-43 0 -72 30t-29 73zM805 70q0 45 28 74.5t72 29.5q43 0 71 -30t28 -74 q0 -43 -28.5 -73t-70.5 -30q-44 0 -72 30t-28 73z" />
<glyph unicode="&#x202f;" horiz-adv-x="370" />
<glyph unicode="&#x2039;" horiz-adv-x="663" d="M72 508q239 263 352 487h141q-124 -239 -340 -487q190 -217 340 -508h-141q-137 272 -352 508z" />
<glyph unicode="&#x203a;" horiz-adv-x="663" d="M98 0q150 291 340 508q-216 248 -340 487h142q117 -232 352 -487q-211 -230 -352 -508h-142z" />
<glyph unicode="&#x205f;" horiz-adv-x="462" />
<glyph unicode="&#x20ac;" horiz-adv-x="1214" d="M74 508v82h119v59q0 55 2 82h-121v82h131q21 131 75 233.5t129.5 164t162.5 93t180 31.5q222 0 335 -116v-183q-103 158 -335 158q-159 0 -259.5 -95t-130.5 -286h510v-82h-518q-2 -25 -2 -76v-65h520v-82h-512q48 -402 392 -402q232 0 335 154v-172q-117 -123 -335 -123 q-111 0 -202 30.5t-165 94t-122 169.5t-64 249h-125z" />
<glyph unicode="&#x2122;" horiz-adv-x="1894" d="M111 1257v101h677v-101h-276v-667h-125v667h-276zM922 590v768h108l301 -387l289 387h109v-768h-121v588l-265 -351h-32l-269 351v-588h-120z" />
<glyph unicode="&#xe000;" horiz-adv-x="1105" d="M0 0v1106h1106v-1106h-1106z" />
</font>
</defs>
</svg>
